<svg width="600" height="600" viewBox="0 0 600 600" fill="none" xmlns="http://www.w3.org/2000/svg">
<mask id="path-1-inside-1" fill="white">
<path d="M247.672 104.693C247.479 105.175 246.9 107.202 246.514 109.325C244.681 120.036 236.768 135.09 228.469 144.258C217.275 156.417 197.396 163.461 176.552 162.689L167.385 162.4L167.481 165.777C167.578 167.611 168.832 172.242 170.183 176.006C177.228 195.499 175.587 216.246 165.744 231.397C160.437 239.696 148.278 251.565 141.523 255.039C134.575 258.706 134.285 260.926 140.075 264.206C155.322 272.505 169.122 289.586 173.175 304.833C176.263 316.509 174.14 338.125 168.736 349.609C167.578 351.925 166.902 354.53 167.192 355.302C167.578 356.267 171.052 356.749 182.052 357.039C197.782 357.618 204.923 359.258 215.634 364.855C229.144 372.093 241.303 389.077 246.032 407.508C248.251 416.386 249.602 417.062 254.717 412.43C263.981 404.034 277.973 397.086 290.904 394.481C306.826 391.2 327.863 398.051 344.558 411.947C347.163 414.167 349.672 415.518 350.541 415.228C351.216 414.939 352.471 412.14 353.146 409.149C357.296 390.138 371.191 371.031 386.245 363.697C396.474 358.583 406.028 356.653 419.924 356.556C429.188 356.46 432.372 356.17 432.662 355.205C432.951 354.53 431.89 350.767 430.346 346.81C424.266 331.756 423.205 313.518 427.547 300.49C431.793 287.849 442.987 274.049 455.822 265.654C464.024 260.347 464.892 258.32 460.164 255.715C449.935 250.118 438.934 239.503 432.662 229.274C423.108 213.737 422.047 193.665 429.574 172.725C431.214 168.383 432.276 164.137 431.986 163.461C431.504 162.303 429.67 162.207 422.433 162.593C407.668 163.461 390.877 159.215 379.49 151.688C368.875 144.547 358.454 128.721 353.822 112.606C352.278 107.395 350.927 104.403 349.962 104.21C349.093 104.017 345.716 106.14 342.338 108.842C334.908 114.922 321.205 121.677 311.844 123.896C294.378 128.046 274.499 122.545 257.033 108.649C251.436 104.307 248.637 103.052 247.672 104.693ZM338.671 130.265C336.066 138.757 333.943 143.679 332.592 144.837C329.311 147.635 317.634 152.943 311.072 154.583C307.791 155.452 302.484 156.127 299.203 156.127C289.263 156.127 269.867 148.89 265.718 143.486C265.139 142.714 263.016 137.213 260.989 131.23C258.384 123.317 257.708 119.94 258.48 119.168C259.156 118.492 262.051 119.457 268.42 122.642C290.904 133.932 309.142 133.739 331.916 122.063C337.513 119.168 342.242 116.948 342.338 117.141C342.531 117.238 340.891 123.124 338.671 130.265ZM351.602 124.089C357.199 137.889 368.489 151.881 379.297 158.347C387.114 162.882 397.922 166.356 409.116 167.804C413.844 168.383 417.801 169.251 417.801 169.54C417.801 169.926 412.879 173.786 406.8 178.129C394.255 187.2 392.904 187.489 380.069 184.208C364.629 180.252 357.006 175.041 348.225 162.496C345.619 158.926 342.724 153.618 341.663 150.82L339.733 145.802L343.593 133.836C348.225 119.168 348.128 119.457 348.997 119.457C349.383 119.457 350.637 121.484 351.602 124.089ZM251.629 122.545C252.111 123.221 254.234 128.818 256.164 134.994L259.831 146.188L256.454 153.329C250.953 164.909 242.268 174.848 233.776 179.094C227.697 182.278 213.608 186.042 208.204 186.042C203.861 186.042 202.607 185.463 195.466 180.252C187.263 174.365 182.631 170.023 183.5 169.154C183.693 168.865 187.167 168.286 191.123 167.707C204.826 165.97 218.336 160.663 226.925 153.522C233.583 148.118 240.821 138.468 245.356 129.397C247.576 124.958 249.602 121.387 249.988 121.387C250.374 121.387 251.05 121.966 251.629 122.545ZM281.254 158.154C296.308 163.365 306.633 162.979 323.038 156.417C326.416 155.066 329.407 154.294 329.697 154.583C329.986 154.873 329.311 158.636 328.056 162.882C325.451 172.049 324.196 173.207 313.292 176.874C301.519 180.831 290.518 179.866 278.648 173.883C274.402 171.76 274.113 171.277 271.7 164.137C268.709 155.162 268.613 153.811 270.928 154.583C271.797 154.873 276.429 156.513 281.254 158.154ZM347.646 171.47C354.497 180.445 364.822 186.428 378.525 189.612C382.289 190.481 385.859 191.542 386.245 191.928C386.728 192.218 383.64 195.016 379.49 198.008C372.542 203.122 371.674 203.412 368.103 202.833C355.269 200.806 344.751 194.823 337.996 185.752C330.855 176.102 330.469 174.655 332.978 166.453C336.741 153.715 336.355 154.101 340.215 160.566C342.145 163.654 345.426 168.576 347.646 171.47ZM266.297 166.067L268.613 173.69L266.007 178.708C259.542 190.963 249.506 198.587 235.127 202.061C227.6 203.991 227.311 203.894 218.529 196.946C215.538 194.534 213.415 192.314 213.801 191.832C214.283 191.446 217.95 190.384 221.81 189.419C238.119 185.463 248.444 177.839 257.901 162.689C262.63 155.066 263.016 155.162 266.297 166.067ZM189.097 182.761C201.931 192.025 202.896 194.051 202.993 212.097C202.993 222.422 202.703 224.931 200.773 229.756C198.168 236.318 189 249.056 183.693 253.399L179.929 256.487H166.227C158.603 256.487 152.427 256.101 152.427 255.715C152.427 255.329 155.322 252.144 158.796 248.767C175.491 232.265 182.245 213.737 179.447 192.314C178.868 187.489 178.096 181.796 177.806 179.48C177.517 177.26 177.71 175.427 178.192 175.427C178.675 175.427 183.596 178.708 189.097 182.761ZM420.889 180.927C419.924 184.594 419.345 190.77 419.345 199.069C419.248 209.491 419.634 212.772 421.371 218.369C424.652 228.598 429.863 236.704 439.803 246.74C444.628 251.758 448.681 256.004 448.681 256.197C448.681 256.39 442.119 256.487 434.109 256.487H419.634L412.686 249.442C405.545 242.108 400.238 234.292 397.922 227.537C394.93 218.852 395.316 199.648 398.597 192.507C399.659 190.288 419.345 175.523 421.371 175.427C422.143 175.427 422.047 177.067 420.889 180.927ZM299.589 184.498C308.37 184.498 311.169 184.112 315.801 182.278C318.889 181.024 321.591 180.252 321.88 180.445C322.073 180.734 321.494 183.243 320.529 186.138C318.889 190.963 318.406 191.542 313.099 194.244C308.081 196.753 306.247 197.139 299.589 197.139C293.123 197.139 291 196.753 286.368 194.437C281.447 192.025 280.771 191.349 279.324 187.007C278.455 184.401 277.973 181.796 278.262 181.313C278.552 180.831 281.061 181.313 283.859 182.471C288.009 184.112 291 184.498 299.589 184.498ZM273.534 187.972C275.174 192.893 275.174 192.893 272.665 198.104C268.13 207.272 258.77 213.834 248.83 214.702C243.619 215.185 242.944 214.992 239.373 212.097C235.127 208.816 235.031 207.272 239.084 207.272C245.935 207.272 259.252 198.201 266.297 188.84C268.613 185.752 270.928 183.147 271.218 183.147C271.604 183.147 272.665 185.366 273.534 187.972ZM330.951 185.945C334.039 193.472 350.637 205.342 360.191 206.886C362.12 207.272 363.761 207.851 363.761 208.333C363.761 208.719 362.12 210.36 360.191 212C355.752 215.667 350.927 215.957 342.821 212.869C335.873 210.36 327.96 202.543 325.933 196.464C324.679 192.797 324.679 191.735 326.03 187.779C327.67 182.471 329.214 181.892 330.951 185.945ZM390.491 209.877C390.491 224.159 391.746 229.563 397.246 239.02C399.273 242.398 402.94 247.512 405.545 250.311C408.054 253.013 410.081 255.618 410.081 255.908C410.081 256.197 405.738 256.487 400.527 256.487H390.974L386.149 251.179C383.447 248.188 379.876 243.073 378.236 239.792C375.244 233.616 372.928 222.519 373.797 217.887C374.086 216.536 374.472 213.834 374.858 211.807C375.341 208.719 376.402 207.465 382.385 202.929C386.245 200.034 389.623 197.718 390.009 197.718C390.298 197.622 390.588 203.122 390.491 209.877ZM216.792 202.833C220.073 205.245 222.968 207.561 223.258 208.044C223.547 208.526 224.223 211.904 224.802 215.667C226.828 228.405 222.872 240.95 213.704 251.372L209.169 256.487H199.615C194.404 256.487 190.062 256.197 190.062 255.908C190.062 255.618 191.895 253.302 194.211 250.6C199.905 244.038 205.309 234.774 207.142 228.502C208.204 224.738 208.686 219.527 208.686 210.842C208.686 202.061 208.976 198.587 209.748 198.587C210.423 198.587 213.511 200.517 216.792 202.833ZM293.606 202.543C298.334 203.412 301.133 203.412 305.958 202.543C315.222 200.806 315.029 200.71 314.836 203.219C314.643 204.377 313.967 206.886 313.195 208.719C311.941 211.518 310.976 212.193 306.344 213.544C300.554 215.281 295.15 214.895 289.842 212.483C287.623 211.421 286.561 209.974 285.403 206.307C283.859 201.482 284.052 200.131 286.272 200.999C287.044 201.192 290.325 201.964 293.606 202.543ZM323.231 203.798C323.231 204.473 325.065 207.079 327.188 209.588C331.337 214.22 337.706 218.08 343.303 219.334C344.944 219.624 346.391 220.492 346.391 221.071C346.295 222.808 339.154 227.537 336.645 227.537C330.951 227.537 318.406 217.694 318.406 213.255C318.406 210.553 321.398 202.447 322.363 202.447C322.845 202.447 323.231 203.026 323.231 203.798ZM279.999 208.14C281.35 212.386 281.35 213.158 279.999 215.86C277.587 220.975 267.744 227.537 262.437 227.537C261.375 227.537 258.77 226.379 256.743 224.835C252.883 222.229 251.629 219.817 254.041 219.817C257.033 219.817 267.262 213.834 271.411 209.684C273.92 207.079 275.946 204.666 275.946 204.184C275.946 203.798 276.525 203.412 277.201 203.412C277.876 203.412 279.131 205.535 279.999 208.14ZM237.057 217.694C245.26 223.773 242.944 243.266 233.004 252.916C229.627 256.197 228.855 256.487 223.644 256.487C220.556 256.487 218.047 256.294 218.047 256.004C218.047 255.811 219.784 253.302 221.81 250.6C227.6 242.977 229.82 236.318 230.302 225.607C230.881 212.483 230.592 212.772 237.057 217.694ZM368.2 221.94C368.393 233.809 371.384 241.529 380.745 254.267L382.289 256.487H376.595C369.937 256.487 367.428 255.039 362.893 248.381C355.269 237.38 355.173 222.519 362.603 217.404C364.533 216.053 366.559 214.992 367.138 214.992C367.717 214.992 368.2 217.79 368.2 221.94ZM305.282 232.941C301.229 245.775 299.878 248.863 298.817 247.126C298.141 246.065 290.421 221.65 290.421 220.685C290.421 220.01 307.309 218.948 308.853 219.527C309.239 219.72 307.598 225.703 305.282 232.941ZM288.491 234.292C290.614 241.143 292.641 247.512 292.93 248.284C294.088 251.083 291.097 249.635 281.543 242.88C266.2 231.783 267.069 233.23 273.148 229.756C276.043 228.116 279.42 225.607 280.675 224.256C282.026 222.905 283.377 221.747 283.763 221.747C284.149 221.747 286.272 227.344 288.491 234.292ZM320.143 225.51C322.652 227.537 326.126 229.949 327.863 230.818C329.6 231.686 330.758 232.844 330.565 233.23C329.89 234.292 309.914 248.767 308.177 249.442C307.405 249.732 306.826 249.346 306.826 248.67C306.826 247.03 314.739 221.747 315.222 221.747C315.511 221.747 317.634 223.387 320.143 225.51ZM253.462 229.467C256.357 231.59 257.612 233.327 257.998 235.836C258.866 239.985 256.647 247.995 253.462 252.723C251.436 255.811 250.953 256.004 245.163 256.294C241.786 256.487 239.277 256.197 239.373 255.811C239.566 255.425 241.4 251.758 243.33 247.802C246.128 242.301 247.093 238.924 247.576 233.52C247.962 229.756 248.541 226.572 248.83 226.572C249.216 226.572 251.243 227.923 253.462 229.467ZM351.699 232.555C352.567 240.661 354.594 246.837 358.068 251.565C359.612 253.785 360.866 255.715 360.866 256.004C360.866 256.294 358.164 256.487 354.98 256.294C349.479 256.004 348.804 255.715 346.295 252.627C343.11 248.67 340.312 238.827 341.373 235.064C341.952 232.844 348.514 226.668 350.444 226.572C350.734 226.572 351.313 229.274 351.699 232.555ZM277.201 246.74C283.473 251.276 288.491 255.232 288.491 255.715C288.491 256.101 282.026 256.487 274.016 256.487C257.805 256.487 258.191 256.68 261.472 249.635C262.533 247.319 263.402 244.038 263.402 242.398C263.402 239.406 264.174 237.862 265.332 238.345C265.718 238.538 271.025 242.301 277.201 246.74ZM336.066 243.073C336.355 245.196 337.61 249.153 338.961 251.758L341.277 256.487H326.416C314.932 256.487 311.555 256.197 311.844 255.232C312.423 253.688 333.846 238.055 334.811 238.634C335.197 238.827 335.776 240.854 336.066 243.073ZM181.956 265.364C188.035 269.707 195.273 278.778 199.519 287.27L203.089 294.507V307.535C203.089 325.484 202.703 326.352 191.606 334.555C181.473 342.082 178.771 343.626 178.096 342.564C177.903 342.178 178.289 338.994 179.157 335.616C181.377 325.966 180.412 307.245 177.324 298.753C173.561 288.717 169.122 281.962 160.437 272.988C155.998 268.549 152.427 264.496 152.427 264.11C152.427 262.759 154.84 262.469 166.227 262.373C177.614 262.277 177.71 262.277 181.956 265.364ZM212.739 267.487C222.1 277.427 226.635 289.779 225.477 302.42C225.091 305.798 224.512 309.272 224.03 310.044C223.258 311.588 210.616 321.141 209.458 321.141C209.072 321.141 208.976 317.378 209.169 312.649C210.037 294.314 205.502 281.48 193.15 267.873C191.413 265.943 190.158 263.82 190.544 263.242C190.834 262.759 194.79 262.277 199.519 262.277H207.818L212.739 267.487ZM232.811 266.426C238.505 272.023 241.4 278.392 241.979 286.401C242.558 294.797 241.207 298.753 236.478 302.034C231.46 305.605 230.399 305.508 231.074 301.552C232.039 296.534 229.916 283.989 227.118 278.102C225.767 275.207 223.161 270.865 221.328 268.452C219.494 266.04 218.24 263.724 218.529 263.242C218.915 262.663 221.328 262.277 223.933 262.277C228.276 262.277 229.048 262.663 232.811 266.426ZM252.208 265.557C256.743 270.286 259.445 279.646 257.998 284.954C257.515 286.884 250.953 292.191 249.023 292.191C248.444 292.191 247.962 290.261 247.962 287.559C247.962 281.48 245.839 274.435 242.172 268.742C240.628 266.233 239.277 263.724 239.277 263.242C239.277 262.663 241.496 262.277 244.198 262.277C248.637 262.277 249.506 262.663 252.208 265.557ZM288.009 263.628C288.009 264.496 266.49 280.611 265.428 280.611C264.463 280.611 259.542 264.013 260.121 263.145C260.796 261.987 288.009 262.469 288.009 263.628ZM339.057 267.101C337.706 269.707 336.355 274.049 336.066 276.751C335.776 279.357 335.39 281.576 335.197 281.576C334.811 281.576 313.581 266.329 312.23 265.171C309.914 262.952 313.485 262.277 327.091 262.277H341.47L339.057 267.101ZM360.866 263.048C360.866 263.531 360.094 264.689 359.033 265.557C358.068 266.426 356.041 269.9 354.497 273.181C352.374 277.909 351.795 280.708 351.795 286.112C351.699 289.972 351.602 293.156 351.409 293.156C350.251 293.156 342.628 287.173 342.145 285.919C340.987 282.734 341.663 275.207 343.593 270.961C346.874 263.724 348.804 262.277 355.269 262.277C358.357 262.277 360.866 262.663 360.866 263.048ZM381.131 263.628C381.131 264.399 380.648 265.364 380.069 265.75C378.525 266.715 373.025 275.786 370.998 280.611C369.937 283.313 369.068 288.814 368.682 295.376L368.103 305.894L363.568 302.42C358.164 298.271 356.524 293.639 357.296 285.533C358.068 278.681 362.893 268.935 367.428 265.171C370.323 262.759 371.77 262.277 376.016 262.277C379.876 262.277 381.131 262.663 381.131 263.628ZM409.116 263.242C409.116 263.724 407.668 265.847 405.931 267.777C401.299 272.988 396.86 279.839 393.869 286.208C391.36 291.419 391.263 292.481 391.263 306.859C391.263 315.255 391.07 322.106 390.974 322.106C390.781 322.106 387.403 319.79 383.447 316.992C374.858 310.912 373.99 308.693 374.569 294.99C374.858 286.98 375.341 284.954 377.946 279.55C379.683 276.172 383.254 270.865 385.956 267.777L390.974 262.277H400.045C405.449 262.277 409.116 262.663 409.116 263.242ZM447.716 262.952C447.716 263.242 443.952 267.487 439.32 272.312C430.249 281.769 425.81 288.428 422.433 297.595C418.959 306.956 418.862 332.142 422.336 341.02C422.626 341.792 422.143 342.564 421.371 342.95C420.503 343.24 415.871 340.538 409.695 335.906C399.755 328.668 399.369 328.282 397.825 323.071C395.509 315.351 395.606 298.078 397.922 291.419C400.334 284.375 408.054 273.084 414.52 267.198L419.924 262.277H433.82C441.443 262.277 447.716 262.566 447.716 262.952ZM292.834 271.251C289.456 282.252 284.342 297.016 283.956 297.016C283.666 297.016 281.929 295.762 280.192 294.121C278.359 292.577 275.174 290.261 273.051 289.103C270.928 287.849 269.385 286.401 269.481 285.919C269.674 285.34 274.692 281.383 280.675 277.041C290.807 269.61 293.799 268.163 292.834 271.251ZM319.95 277.909C326.03 282.252 330.951 286.112 330.951 286.401C330.951 286.787 329.214 287.849 327.188 288.814C325.065 289.682 321.591 292.191 319.468 294.314C316.766 296.823 315.318 297.692 315.029 296.823C312.809 290.84 306.826 272.216 306.826 271.251C306.826 268.935 309.046 269.996 319.95 277.909ZM304.8 284.664C307.116 291.709 309.142 297.885 309.432 298.464C309.625 299.043 306.054 299.429 299.782 299.429H289.842L294.281 285.726C296.694 278.102 299.106 271.926 299.589 271.926C300.168 271.926 302.484 277.716 304.8 284.664ZM270.253 294.121C273.823 296.051 280.675 302.903 280.868 305.026C281.061 307.342 280.578 310.14 279.227 313.228L277.973 316.413L271.893 310.237C267.455 305.798 264.077 303.385 259.349 301.359C255.682 299.815 252.787 298.174 252.787 297.788C252.787 297.402 254.62 295.762 256.936 294.218C261.375 290.937 263.884 290.937 270.253 294.121ZM342.917 294.7L347.549 298.174L342.049 300.394C334.715 303.385 329.311 307.245 325.74 312.167C324.1 314.386 322.363 316.123 321.88 315.93C320.336 315.544 318.213 307.728 318.792 305.219C320.143 300.008 331.434 291.226 336.838 291.226C337.706 291.226 340.408 292.77 342.917 294.7ZM259.252 307.631C265.718 310.816 270.928 316.316 273.534 322.492C274.885 325.773 274.885 326.545 273.437 331.37C272.472 334.169 271.507 336.581 271.218 336.581C270.928 336.581 269.577 334.555 268.323 332.142C264.27 324.519 250.664 315.158 239.856 312.36C237.347 311.781 235.417 310.912 235.61 310.43C235.803 310.044 237.636 308.307 239.759 306.666C243.233 304.061 244.102 303.771 248.444 304.157C251.05 304.447 255.971 305.991 259.252 307.631ZM359.708 306.763C361.928 308.403 363.761 310.044 363.761 310.526C363.761 310.912 361.735 311.781 359.322 312.36C349.093 314.965 339.733 321.334 333.46 329.826C331.241 332.721 329.118 335.423 328.635 335.616C328.153 335.906 326.995 333.879 326.03 331.081C324.389 326.256 324.389 326.063 326.609 321.431C329.6 315.158 336.162 308.982 343.11 306.184C350.927 302.903 354.69 303.096 359.708 306.763ZM308.756 306.473C311.458 307.728 312.52 309.175 313.967 313.228C314.932 316.027 315.608 318.536 315.318 318.729C315.125 318.922 313.195 318.536 311.169 317.764C306.151 315.93 293.606 315.93 288.684 317.667C286.465 318.439 284.535 318.825 284.342 318.439C284.052 318.053 284.631 315.544 285.5 312.939C286.754 309.079 287.719 307.728 290.421 306.473C294.86 304.157 304.317 304.157 308.756 306.473ZM238.408 317.86C246.032 320.176 251.822 323.361 256.454 327.896C261.568 332.721 268.227 342.95 268.227 345.652C268.227 348.354 263.402 362.636 262.533 362.636C262.147 362.636 259.831 359.451 257.322 355.591C247.962 340.731 238.215 333.879 220.17 329.344L211.871 327.317L219.108 321.817C227.118 315.641 229.434 315.255 238.408 317.86ZM380.069 321.624C388.175 327.51 388.272 327.317 377.271 329.826C374.376 330.405 368.393 332.625 364.147 334.748C355.076 338.994 347.453 346.521 341.18 357.232C339.057 360.802 337.127 363.311 336.741 362.925C336.355 362.539 334.811 358.583 333.364 354.144L330.758 346.135L333.364 340.924C336.548 334.362 344.268 325.773 349.962 322.396C355.462 319.211 364.243 316.413 369.068 316.413C372.253 316.316 374.183 317.281 380.069 321.624ZM309.721 323.264C315.994 325.291 318.985 327.993 320.626 333.107C321.494 335.713 322.073 338.125 321.88 338.318C321.687 338.511 318.503 337.739 314.836 336.581C305.186 333.493 293.123 333.59 283.956 336.774C280.096 338.222 276.911 339.187 276.911 339.09C276.911 338.029 280.289 329.054 281.061 328.089C282.605 326.159 287.43 323.843 292.834 322.492C297.852 321.141 304.028 321.431 309.721 323.264ZM222.003 335.713C230.978 338.222 237.54 341.599 242.751 346.424C247.865 351.153 255.778 362.636 258.094 368.812L259.735 373.154L255.778 385.796C253.366 393.323 251.243 398.341 250.567 398.341C249.795 398.341 248.348 396.025 247.19 393.226C243.812 385.12 236.092 374.023 229.53 368.04C219.977 359.162 205.212 352.89 189.869 351.249C185.43 350.767 183.789 350.188 183.789 349.126C183.789 347.775 199.036 335.52 203.089 333.686C205.598 332.528 213.511 333.397 222.003 335.713ZM405.352 339.959C417.608 348.837 418.09 350.284 408.826 351.249C384.412 353.662 365.787 366.592 354.497 389.173C352.085 393.998 349.576 397.858 348.997 397.858C348.321 397.858 346.005 392.551 343.786 385.989L339.733 374.119L341.663 369.005C345.909 357.521 356.524 344.591 365.305 340.152C369.84 337.836 380.745 334.265 385.956 333.397C393.772 332.046 395.027 332.432 405.352 339.959ZM309.239 340.924C312.423 341.792 317.248 343.529 320.047 344.88C324.968 347.293 324.968 347.293 327.96 356.074C329.6 360.899 330.758 365.048 330.565 365.338C330.372 365.531 328.925 365.048 327.381 364.276C322.942 361.96 309.625 358.004 303.931 357.328C297.369 356.556 285.789 358.776 276.429 362.732C272.762 364.276 269.385 365.531 268.999 365.531C268.613 365.531 269.674 361.478 271.411 356.556L274.499 347.679L280.096 344.88C290.614 339.669 299.492 338.415 309.239 340.924ZM309.239 364.083C318.792 366.592 327.96 370.452 331.337 373.637C334.039 376.049 335.39 378.751 338.092 387.243C341.373 397.183 342.242 401.236 341.084 401.236C340.794 401.236 336.838 399.306 332.206 396.99C319.564 390.621 311.072 388.305 300.071 388.305C288.491 388.401 281.254 390.235 268.42 396.604C262.919 399.209 258.191 401.236 257.901 400.85C257.033 399.981 264.367 376.918 266.104 374.891C268.323 372.382 279.999 366.978 288.009 364.662C296.308 362.346 301.808 362.153 309.239 364.083Z"/>
</mask>
<path d="M247.672 104.693C247.479 105.175 246.9 107.202 246.514 109.325C244.681 120.036 236.768 135.09 228.469 144.258C217.275 156.417 197.396 163.461 176.552 162.689L167.385 162.4L167.481 165.777C167.578 167.611 168.832 172.242 170.183 176.006C177.228 195.499 175.587 216.246 165.744 231.397C160.437 239.696 148.278 251.565 141.523 255.039C134.575 258.706 134.285 260.926 140.075 264.206C155.322 272.505 169.122 289.586 173.175 304.833C176.263 316.509 174.14 338.125 168.736 349.609C167.578 351.925 166.902 354.53 167.192 355.302C167.578 356.267 171.052 356.749 182.052 357.039C197.782 357.618 204.923 359.258 215.634 364.855C229.144 372.093 241.303 389.077 246.032 407.508C248.251 416.386 249.602 417.062 254.717 412.43C263.981 404.034 277.973 397.086 290.904 394.481C306.826 391.2 327.863 398.051 344.558 411.947C347.163 414.167 349.672 415.518 350.541 415.228C351.216 414.939 352.471 412.14 353.146 409.149C357.296 390.138 371.191 371.031 386.245 363.697C396.474 358.583 406.028 356.653 419.924 356.556C429.188 356.46 432.372 356.17 432.662 355.205C432.951 354.53 431.89 350.767 430.346 346.81C424.266 331.756 423.205 313.518 427.547 300.49C431.793 287.849 442.987 274.049 455.822 265.654C464.024 260.347 464.892 258.32 460.164 255.715C449.935 250.118 438.934 239.503 432.662 229.274C423.108 213.737 422.047 193.665 429.574 172.725C431.214 168.383 432.276 164.137 431.986 163.461C431.504 162.303 429.67 162.207 422.433 162.593C407.668 163.461 390.877 159.215 379.49 151.688C368.875 144.547 358.454 128.721 353.822 112.606C352.278 107.395 350.927 104.403 349.962 104.21C349.093 104.017 345.716 106.14 342.338 108.842C334.908 114.922 321.205 121.677 311.844 123.896C294.378 128.046 274.499 122.545 257.033 108.649C251.436 104.307 248.637 103.052 247.672 104.693ZM338.671 130.265C336.066 138.757 333.943 143.679 332.592 144.837C329.311 147.635 317.634 152.943 311.072 154.583C307.791 155.452 302.484 156.127 299.203 156.127C289.263 156.127 269.867 148.89 265.718 143.486C265.139 142.714 263.016 137.213 260.989 131.23C258.384 123.317 257.708 119.94 258.48 119.168C259.156 118.492 262.051 119.457 268.42 122.642C290.904 133.932 309.142 133.739 331.916 122.063C337.513 119.168 342.242 116.948 342.338 117.141C342.531 117.238 340.891 123.124 338.671 130.265ZM351.602 124.089C357.199 137.889 368.489 151.881 379.297 158.347C387.114 162.882 397.922 166.356 409.116 167.804C413.844 168.383 417.801 169.251 417.801 169.54C417.801 169.926 412.879 173.786 406.8 178.129C394.255 187.2 392.904 187.489 380.069 184.208C364.629 180.252 357.006 175.041 348.225 162.496C345.619 158.926 342.724 153.618 341.663 150.82L339.733 145.802L343.593 133.836C348.225 119.168 348.128 119.457 348.997 119.457C349.383 119.457 350.637 121.484 351.602 124.089ZM251.629 122.545C252.111 123.221 254.234 128.818 256.164 134.994L259.831 146.188L256.454 153.329C250.953 164.909 242.268 174.848 233.776 179.094C227.697 182.278 213.608 186.042 208.204 186.042C203.861 186.042 202.607 185.463 195.466 180.252C187.263 174.365 182.631 170.023 183.5 169.154C183.693 168.865 187.167 168.286 191.123 167.707C204.826 165.97 218.336 160.663 226.925 153.522C233.583 148.118 240.821 138.468 245.356 129.397C247.576 124.958 249.602 121.387 249.988 121.387C250.374 121.387 251.05 121.966 251.629 122.545ZM281.254 158.154C296.308 163.365 306.633 162.979 323.038 156.417C326.416 155.066 329.407 154.294 329.697 154.583C329.986 154.873 329.311 158.636 328.056 162.882C325.451 172.049 324.196 173.207 313.292 176.874C301.519 180.831 290.518 179.866 278.648 173.883C274.402 171.76 274.113 171.277 271.7 164.137C268.709 155.162 268.613 153.811 270.928 154.583C271.797 154.873 276.429 156.513 281.254 158.154ZM347.646 171.47C354.497 180.445 364.822 186.428 378.525 189.612C382.289 190.481 385.859 191.542 386.245 191.928C386.728 192.218 383.64 195.016 379.49 198.008C372.542 203.122 371.674 203.412 368.103 202.833C355.269 200.806 344.751 194.823 337.996 185.752C330.855 176.102 330.469 174.655 332.978 166.453C336.741 153.715 336.355 154.101 340.215 160.566C342.145 163.654 345.426 168.576 347.646 171.47ZM266.297 166.067L268.613 173.69L266.007 178.708C259.542 190.963 249.506 198.587 235.127 202.061C227.6 203.991 227.311 203.894 218.529 196.946C215.538 194.534 213.415 192.314 213.801 191.832C214.283 191.446 217.95 190.384 221.81 189.419C238.119 185.463 248.444 177.839 257.901 162.689C262.63 155.066 263.016 155.162 266.297 166.067ZM189.097 182.761C201.931 192.025 202.896 194.051 202.993 212.097C202.993 222.422 202.703 224.931 200.773 229.756C198.168 236.318 189 249.056 183.693 253.399L179.929 256.487H166.227C158.603 256.487 152.427 256.101 152.427 255.715C152.427 255.329 155.322 252.144 158.796 248.767C175.491 232.265 182.245 213.737 179.447 192.314C178.868 187.489 178.096 181.796 177.806 179.48C177.517 177.26 177.71 175.427 178.192 175.427C178.675 175.427 183.596 178.708 189.097 182.761ZM420.889 180.927C419.924 184.594 419.345 190.77 419.345 199.069C419.248 209.491 419.634 212.772 421.371 218.369C424.652 228.598 429.863 236.704 439.803 246.74C444.628 251.758 448.681 256.004 448.681 256.197C448.681 256.39 442.119 256.487 434.109 256.487H419.634L412.686 249.442C405.545 242.108 400.238 234.292 397.922 227.537C394.93 218.852 395.316 199.648 398.597 192.507C399.659 190.288 419.345 175.523 421.371 175.427C422.143 175.427 422.047 177.067 420.889 180.927ZM299.589 184.498C308.37 184.498 311.169 184.112 315.801 182.278C318.889 181.024 321.591 180.252 321.88 180.445C322.073 180.734 321.494 183.243 320.529 186.138C318.889 190.963 318.406 191.542 313.099 194.244C308.081 196.753 306.247 197.139 299.589 197.139C293.123 197.139 291 196.753 286.368 194.437C281.447 192.025 280.771 191.349 279.324 187.007C278.455 184.401 277.973 181.796 278.262 181.313C278.552 180.831 281.061 181.313 283.859 182.471C288.009 184.112 291 184.498 299.589 184.498ZM273.534 187.972C275.174 192.893 275.174 192.893 272.665 198.104C268.13 207.272 258.77 213.834 248.83 214.702C243.619 215.185 242.944 214.992 239.373 212.097C235.127 208.816 235.031 207.272 239.084 207.272C245.935 207.272 259.252 198.201 266.297 188.84C268.613 185.752 270.928 183.147 271.218 183.147C271.604 183.147 272.665 185.366 273.534 187.972ZM330.951 185.945C334.039 193.472 350.637 205.342 360.191 206.886C362.12 207.272 363.761 207.851 363.761 208.333C363.761 208.719 362.12 210.36 360.191 212C355.752 215.667 350.927 215.957 342.821 212.869C335.873 210.36 327.96 202.543 325.933 196.464C324.679 192.797 324.679 191.735 326.03 187.779C327.67 182.471 329.214 181.892 330.951 185.945ZM390.491 209.877C390.491 224.159 391.746 229.563 397.246 239.02C399.273 242.398 402.94 247.512 405.545 250.311C408.054 253.013 410.081 255.618 410.081 255.908C410.081 256.197 405.738 256.487 400.527 256.487H390.974L386.149 251.179C383.447 248.188 379.876 243.073 378.236 239.792C375.244 233.616 372.928 222.519 373.797 217.887C374.086 216.536 374.472 213.834 374.858 211.807C375.341 208.719 376.402 207.465 382.385 202.929C386.245 200.034 389.623 197.718 390.009 197.718C390.298 197.622 390.588 203.122 390.491 209.877ZM216.792 202.833C220.073 205.245 222.968 207.561 223.258 208.044C223.547 208.526 224.223 211.904 224.802 215.667C226.828 228.405 222.872 240.95 213.704 251.372L209.169 256.487H199.615C194.404 256.487 190.062 256.197 190.062 255.908C190.062 255.618 191.895 253.302 194.211 250.6C199.905 244.038 205.309 234.774 207.142 228.502C208.204 224.738 208.686 219.527 208.686 210.842C208.686 202.061 208.976 198.587 209.748 198.587C210.423 198.587 213.511 200.517 216.792 202.833ZM293.606 202.543C298.334 203.412 301.133 203.412 305.958 202.543C315.222 200.806 315.029 200.71 314.836 203.219C314.643 204.377 313.967 206.886 313.195 208.719C311.941 211.518 310.976 212.193 306.344 213.544C300.554 215.281 295.15 214.895 289.842 212.483C287.623 211.421 286.561 209.974 285.403 206.307C283.859 201.482 284.052 200.131 286.272 200.999C287.044 201.192 290.325 201.964 293.606 202.543ZM323.231 203.798C323.231 204.473 325.065 207.079 327.188 209.588C331.337 214.22 337.706 218.08 343.303 219.334C344.944 219.624 346.391 220.492 346.391 221.071C346.295 222.808 339.154 227.537 336.645 227.537C330.951 227.537 318.406 217.694 318.406 213.255C318.406 210.553 321.398 202.447 322.363 202.447C322.845 202.447 323.231 203.026 323.231 203.798ZM279.999 208.14C281.35 212.386 281.35 213.158 279.999 215.86C277.587 220.975 267.744 227.537 262.437 227.537C261.375 227.537 258.77 226.379 256.743 224.835C252.883 222.229 251.629 219.817 254.041 219.817C257.033 219.817 267.262 213.834 271.411 209.684C273.92 207.079 275.946 204.666 275.946 204.184C275.946 203.798 276.525 203.412 277.201 203.412C277.876 203.412 279.131 205.535 279.999 208.14ZM237.057 217.694C245.26 223.773 242.944 243.266 233.004 252.916C229.627 256.197 228.855 256.487 223.644 256.487C220.556 256.487 218.047 256.294 218.047 256.004C218.047 255.811 219.784 253.302 221.81 250.6C227.6 242.977 229.82 236.318 230.302 225.607C230.881 212.483 230.592 212.772 237.057 217.694ZM368.2 221.94C368.393 233.809 371.384 241.529 380.745 254.267L382.289 256.487H376.595C369.937 256.487 367.428 255.039 362.893 248.381C355.269 237.38 355.173 222.519 362.603 217.404C364.533 216.053 366.559 214.992 367.138 214.992C367.717 214.992 368.2 217.79 368.2 221.94ZM305.282 232.941C301.229 245.775 299.878 248.863 298.817 247.126C298.141 246.065 290.421 221.65 290.421 220.685C290.421 220.01 307.309 218.948 308.853 219.527C309.239 219.72 307.598 225.703 305.282 232.941ZM288.491 234.292C290.614 241.143 292.641 247.512 292.93 248.284C294.088 251.083 291.097 249.635 281.543 242.88C266.2 231.783 267.069 233.23 273.148 229.756C276.043 228.116 279.42 225.607 280.675 224.256C282.026 222.905 283.377 221.747 283.763 221.747C284.149 221.747 286.272 227.344 288.491 234.292ZM320.143 225.51C322.652 227.537 326.126 229.949 327.863 230.818C329.6 231.686 330.758 232.844 330.565 233.23C329.89 234.292 309.914 248.767 308.177 249.442C307.405 249.732 306.826 249.346 306.826 248.67C306.826 247.03 314.739 221.747 315.222 221.747C315.511 221.747 317.634 223.387 320.143 225.51ZM253.462 229.467C256.357 231.59 257.612 233.327 257.998 235.836C258.866 239.985 256.647 247.995 253.462 252.723C251.436 255.811 250.953 256.004 245.163 256.294C241.786 256.487 239.277 256.197 239.373 255.811C239.566 255.425 241.4 251.758 243.33 247.802C246.128 242.301 247.093 238.924 247.576 233.52C247.962 229.756 248.541 226.572 248.83 226.572C249.216 226.572 251.243 227.923 253.462 229.467ZM351.699 232.555C352.567 240.661 354.594 246.837 358.068 251.565C359.612 253.785 360.866 255.715 360.866 256.004C360.866 256.294 358.164 256.487 354.98 256.294C349.479 256.004 348.804 255.715 346.295 252.627C343.11 248.67 340.312 238.827 341.373 235.064C341.952 232.844 348.514 226.668 350.444 226.572C350.734 226.572 351.313 229.274 351.699 232.555ZM277.201 246.74C283.473 251.276 288.491 255.232 288.491 255.715C288.491 256.101 282.026 256.487 274.016 256.487C257.805 256.487 258.191 256.68 261.472 249.635C262.533 247.319 263.402 244.038 263.402 242.398C263.402 239.406 264.174 237.862 265.332 238.345C265.718 238.538 271.025 242.301 277.201 246.74ZM336.066 243.073C336.355 245.196 337.61 249.153 338.961 251.758L341.277 256.487H326.416C314.932 256.487 311.555 256.197 311.844 255.232C312.423 253.688 333.846 238.055 334.811 238.634C335.197 238.827 335.776 240.854 336.066 243.073ZM181.956 265.364C188.035 269.707 195.273 278.778 199.519 287.27L203.089 294.507V307.535C203.089 325.484 202.703 326.352 191.606 334.555C181.473 342.082 178.771 343.626 178.096 342.564C177.903 342.178 178.289 338.994 179.157 335.616C181.377 325.966 180.412 307.245 177.324 298.753C173.561 288.717 169.122 281.962 160.437 272.988C155.998 268.549 152.427 264.496 152.427 264.11C152.427 262.759 154.84 262.469 166.227 262.373C177.614 262.277 177.71 262.277 181.956 265.364ZM212.739 267.487C222.1 277.427 226.635 289.779 225.477 302.42C225.091 305.798 224.512 309.272 224.03 310.044C223.258 311.588 210.616 321.141 209.458 321.141C209.072 321.141 208.976 317.378 209.169 312.649C210.037 294.314 205.502 281.48 193.15 267.873C191.413 265.943 190.158 263.82 190.544 263.242C190.834 262.759 194.79 262.277 199.519 262.277H207.818L212.739 267.487ZM232.811 266.426C238.505 272.023 241.4 278.392 241.979 286.401C242.558 294.797 241.207 298.753 236.478 302.034C231.46 305.605 230.399 305.508 231.074 301.552C232.039 296.534 229.916 283.989 227.118 278.102C225.767 275.207 223.161 270.865 221.328 268.452C219.494 266.04 218.24 263.724 218.529 263.242C218.915 262.663 221.328 262.277 223.933 262.277C228.276 262.277 229.048 262.663 232.811 266.426ZM252.208 265.557C256.743 270.286 259.445 279.646 257.998 284.954C257.515 286.884 250.953 292.191 249.023 292.191C248.444 292.191 247.962 290.261 247.962 287.559C247.962 281.48 245.839 274.435 242.172 268.742C240.628 266.233 239.277 263.724 239.277 263.242C239.277 262.663 241.496 262.277 244.198 262.277C248.637 262.277 249.506 262.663 252.208 265.557ZM288.009 263.628C288.009 264.496 266.49 280.611 265.428 280.611C264.463 280.611 259.542 264.013 260.121 263.145C260.796 261.987 288.009 262.469 288.009 263.628ZM339.057 267.101C337.706 269.707 336.355 274.049 336.066 276.751C335.776 279.357 335.39 281.576 335.197 281.576C334.811 281.576 313.581 266.329 312.23 265.171C309.914 262.952 313.485 262.277 327.091 262.277H341.47L339.057 267.101ZM360.866 263.048C360.866 263.531 360.094 264.689 359.033 265.557C358.068 266.426 356.041 269.9 354.497 273.181C352.374 277.909 351.795 280.708 351.795 286.112C351.699 289.972 351.602 293.156 351.409 293.156C350.251 293.156 342.628 287.173 342.145 285.919C340.987 282.734 341.663 275.207 343.593 270.961C346.874 263.724 348.804 262.277 355.269 262.277C358.357 262.277 360.866 262.663 360.866 263.048ZM381.131 263.628C381.131 264.399 380.648 265.364 380.069 265.75C378.525 266.715 373.025 275.786 370.998 280.611C369.937 283.313 369.068 288.814 368.682 295.376L368.103 305.894L363.568 302.42C358.164 298.271 356.524 293.639 357.296 285.533C358.068 278.681 362.893 268.935 367.428 265.171C370.323 262.759 371.77 262.277 376.016 262.277C379.876 262.277 381.131 262.663 381.131 263.628ZM409.116 263.242C409.116 263.724 407.668 265.847 405.931 267.777C401.299 272.988 396.86 279.839 393.869 286.208C391.36 291.419 391.263 292.481 391.263 306.859C391.263 315.255 391.07 322.106 390.974 322.106C390.781 322.106 387.403 319.79 383.447 316.992C374.858 310.912 373.99 308.693 374.569 294.99C374.858 286.98 375.341 284.954 377.946 279.55C379.683 276.172 383.254 270.865 385.956 267.777L390.974 262.277H400.045C405.449 262.277 409.116 262.663 409.116 263.242ZM447.716 262.952C447.716 263.242 443.952 267.487 439.32 272.312C430.249 281.769 425.81 288.428 422.433 297.595C418.959 306.956 418.862 332.142 422.336 341.02C422.626 341.792 422.143 342.564 421.371 342.95C420.503 343.24 415.871 340.538 409.695 335.906C399.755 328.668 399.369 328.282 397.825 323.071C395.509 315.351 395.606 298.078 397.922 291.419C400.334 284.375 408.054 273.084 414.52 267.198L419.924 262.277H433.82C441.443 262.277 447.716 262.566 447.716 262.952ZM292.834 271.251C289.456 282.252 284.342 297.016 283.956 297.016C283.666 297.016 281.929 295.762 280.192 294.121C278.359 292.577 275.174 290.261 273.051 289.103C270.928 287.849 269.385 286.401 269.481 285.919C269.674 285.34 274.692 281.383 280.675 277.041C290.807 269.61 293.799 268.163 292.834 271.251ZM319.95 277.909C326.03 282.252 330.951 286.112 330.951 286.401C330.951 286.787 329.214 287.849 327.188 288.814C325.065 289.682 321.591 292.191 319.468 294.314C316.766 296.823 315.318 297.692 315.029 296.823C312.809 290.84 306.826 272.216 306.826 271.251C306.826 268.935 309.046 269.996 319.95 277.909ZM304.8 284.664C307.116 291.709 309.142 297.885 309.432 298.464C309.625 299.043 306.054 299.429 299.782 299.429H289.842L294.281 285.726C296.694 278.102 299.106 271.926 299.589 271.926C300.168 271.926 302.484 277.716 304.8 284.664ZM270.253 294.121C273.823 296.051 280.675 302.903 280.868 305.026C281.061 307.342 280.578 310.14 279.227 313.228L277.973 316.413L271.893 310.237C267.455 305.798 264.077 303.385 259.349 301.359C255.682 299.815 252.787 298.174 252.787 297.788C252.787 297.402 254.62 295.762 256.936 294.218C261.375 290.937 263.884 290.937 270.253 294.121ZM342.917 294.7L347.549 298.174L342.049 300.394C334.715 303.385 329.311 307.245 325.74 312.167C324.1 314.386 322.363 316.123 321.88 315.93C320.336 315.544 318.213 307.728 318.792 305.219C320.143 300.008 331.434 291.226 336.838 291.226C337.706 291.226 340.408 292.77 342.917 294.7ZM259.252 307.631C265.718 310.816 270.928 316.316 273.534 322.492C274.885 325.773 274.885 326.545 273.437 331.37C272.472 334.169 271.507 336.581 271.218 336.581C270.928 336.581 269.577 334.555 268.323 332.142C264.27 324.519 250.664 315.158 239.856 312.36C237.347 311.781 235.417 310.912 235.61 310.43C235.803 310.044 237.636 308.307 239.759 306.666C243.233 304.061 244.102 303.771 248.444 304.157C251.05 304.447 255.971 305.991 259.252 307.631ZM359.708 306.763C361.928 308.403 363.761 310.044 363.761 310.526C363.761 310.912 361.735 311.781 359.322 312.36C349.093 314.965 339.733 321.334 333.46 329.826C331.241 332.721 329.118 335.423 328.635 335.616C328.153 335.906 326.995 333.879 326.03 331.081C324.389 326.256 324.389 326.063 326.609 321.431C329.6 315.158 336.162 308.982 343.11 306.184C350.927 302.903 354.69 303.096 359.708 306.763ZM308.756 306.473C311.458 307.728 312.52 309.175 313.967 313.228C314.932 316.027 315.608 318.536 315.318 318.729C315.125 318.922 313.195 318.536 311.169 317.764C306.151 315.93 293.606 315.93 288.684 317.667C286.465 318.439 284.535 318.825 284.342 318.439C284.052 318.053 284.631 315.544 285.5 312.939C286.754 309.079 287.719 307.728 290.421 306.473C294.86 304.157 304.317 304.157 308.756 306.473ZM238.408 317.86C246.032 320.176 251.822 323.361 256.454 327.896C261.568 332.721 268.227 342.95 268.227 345.652C268.227 348.354 263.402 362.636 262.533 362.636C262.147 362.636 259.831 359.451 257.322 355.591C247.962 340.731 238.215 333.879 220.17 329.344L211.871 327.317L219.108 321.817C227.118 315.641 229.434 315.255 238.408 317.86ZM380.069 321.624C388.175 327.51 388.272 327.317 377.271 329.826C374.376 330.405 368.393 332.625 364.147 334.748C355.076 338.994 347.453 346.521 341.18 357.232C339.057 360.802 337.127 363.311 336.741 362.925C336.355 362.539 334.811 358.583 333.364 354.144L330.758 346.135L333.364 340.924C336.548 334.362 344.268 325.773 349.962 322.396C355.462 319.211 364.243 316.413 369.068 316.413C372.253 316.316 374.183 317.281 380.069 321.624ZM309.721 323.264C315.994 325.291 318.985 327.993 320.626 333.107C321.494 335.713 322.073 338.125 321.88 338.318C321.687 338.511 318.503 337.739 314.836 336.581C305.186 333.493 293.123 333.59 283.956 336.774C280.096 338.222 276.911 339.187 276.911 339.09C276.911 338.029 280.289 329.054 281.061 328.089C282.605 326.159 287.43 323.843 292.834 322.492C297.852 321.141 304.028 321.431 309.721 323.264ZM222.003 335.713C230.978 338.222 237.54 341.599 242.751 346.424C247.865 351.153 255.778 362.636 258.094 368.812L259.735 373.154L255.778 385.796C253.366 393.323 251.243 398.341 250.567 398.341C249.795 398.341 248.348 396.025 247.19 393.226C243.812 385.12 236.092 374.023 229.53 368.04C219.977 359.162 205.212 352.89 189.869 351.249C185.43 350.767 183.789 350.188 183.789 349.126C183.789 347.775 199.036 335.52 203.089 333.686C205.598 332.528 213.511 333.397 222.003 335.713ZM405.352 339.959C417.608 348.837 418.09 350.284 408.826 351.249C384.412 353.662 365.787 366.592 354.497 389.173C352.085 393.998 349.576 397.858 348.997 397.858C348.321 397.858 346.005 392.551 343.786 385.989L339.733 374.119L341.663 369.005C345.909 357.521 356.524 344.591 365.305 340.152C369.84 337.836 380.745 334.265 385.956 333.397C393.772 332.046 395.027 332.432 405.352 339.959ZM309.239 340.924C312.423 341.792 317.248 343.529 320.047 344.88C324.968 347.293 324.968 347.293 327.96 356.074C329.6 360.899 330.758 365.048 330.565 365.338C330.372 365.531 328.925 365.048 327.381 364.276C322.942 361.96 309.625 358.004 303.931 357.328C297.369 356.556 285.789 358.776 276.429 362.732C272.762 364.276 269.385 365.531 268.999 365.531C268.613 365.531 269.674 361.478 271.411 356.556L274.499 347.679L280.096 344.88C290.614 339.669 299.492 338.415 309.239 340.924ZM309.239 364.083C318.792 366.592 327.96 370.452 331.337 373.637C334.039 376.049 335.39 378.751 338.092 387.243C341.373 397.183 342.242 401.236 341.084 401.236C340.794 401.236 336.838 399.306 332.206 396.99C319.564 390.621 311.072 388.305 300.071 388.305C288.491 388.401 281.254 390.235 268.42 396.604C262.919 399.209 258.191 401.236 257.901 400.85C257.033 399.981 264.367 376.918 266.104 374.891C268.323 372.382 279.999 366.978 288.009 364.662C296.308 362.346 301.808 362.153 309.239 364.083Z" fill="#6892FF" stroke="white" stroke-width="2" mask="url(#path-1-inside-1)"/>
<path d="M103.881 521V518.785L106.746 518.293V498.131L103.881 497.639V495.406H122.83V501.559H120.053L119.666 498.078H110.209V506.41H119.648V509.135H110.209V518.398H120.229L120.615 514.865H123.375V521H103.881ZM128.121 511.543V508.836H136.717V511.543H128.121ZM140.742 521V518.785L143.607 518.293V504.705L140.742 504.213V501.98H146.719L146.947 504.459C147.557 503.557 148.342 502.859 149.303 502.367C150.264 501.875 151.377 501.629 152.643 501.629C153.908 501.629 154.992 501.922 155.895 502.508C156.809 503.094 157.494 503.973 157.951 505.145C158.549 504.066 159.34 503.211 160.324 502.578C161.309 501.945 162.457 501.629 163.77 501.629C165.715 501.629 167.25 502.297 168.375 503.633C169.5 504.957 170.062 506.955 170.062 509.627V518.293L172.928 518.785V521H163.717V518.785L166.582 518.293V509.592C166.582 507.717 166.26 506.393 165.615 505.619C164.971 504.834 164.016 504.441 162.75 504.441C161.543 504.441 160.57 504.869 159.832 505.725C159.105 506.568 158.684 507.635 158.566 508.924V518.293L161.432 518.785V521H152.238V518.785L155.104 518.293V509.592C155.104 507.811 154.77 506.51 154.102 505.689C153.445 504.857 152.49 504.441 151.236 504.441C150.182 504.441 149.314 504.658 148.635 505.092C147.955 505.525 147.434 506.135 147.07 506.92V518.293L149.936 518.785V521H140.742ZM181.664 521.369C179.684 521.369 178.178 520.889 177.146 519.928C176.115 518.955 175.6 517.59 175.6 515.832C175.6 514.027 176.338 512.58 177.814 511.49C179.291 510.389 181.342 509.838 183.967 509.838H187.359V507.975C187.359 506.826 187.008 505.936 186.305 505.303C185.613 504.67 184.635 504.354 183.369 504.354C182.572 504.354 181.881 504.453 181.295 504.652C180.709 504.84 180.176 505.104 179.695 505.443L179.326 508.098H176.654V503.738C178.377 502.332 180.633 501.629 183.422 501.629C185.73 501.629 187.541 502.18 188.854 503.281C190.166 504.383 190.822 505.959 190.822 508.01V517.168C190.822 517.414 190.822 517.654 190.822 517.889C190.834 518.123 190.852 518.357 190.875 518.592L192.721 518.785V521H187.746C187.547 520.039 187.424 519.166 187.377 518.381C186.709 519.236 185.871 519.951 184.863 520.525C183.867 521.088 182.801 521.369 181.664 521.369ZM182.174 518.469C183.322 518.469 184.371 518.193 185.32 517.643C186.27 517.092 186.949 516.43 187.359 515.656V512.211H183.844C182.25 512.211 181.055 512.592 180.258 513.354C179.461 514.115 179.062 514.965 179.062 515.902C179.062 517.613 180.1 518.469 182.174 518.469ZM195.287 521V518.785L198.152 518.293V504.705L195.287 504.213V501.98H201.615V518.293L204.48 518.785V521H195.287ZM197.977 497.287V493.578H201.615V497.287H197.977ZM206.695 521V518.785L209.561 518.293V496.303L206.695 495.811V493.578H213.023V518.293L215.889 518.785V521H206.695ZM227.684 521V518.785L230.549 518.293V498.131L227.684 497.639V495.406H235.172L243.416 514.83H243.521L251.502 495.406H259.219V497.639L256.354 498.131V518.293L259.219 518.785V521H250.025V518.785L253.049 518.293V500.135L252.961 500.117L244.646 520.086H242.344L233.748 500.152L233.66 500.17L233.783 510.875V518.293L236.877 518.785V521H227.684ZM268.324 521.369C266.344 521.369 264.838 520.889 263.807 519.928C262.775 518.955 262.26 517.59 262.26 515.832C262.26 514.027 262.998 512.58 264.475 511.49C265.951 510.389 268.002 509.838 270.627 509.838H274.02V507.975C274.02 506.826 273.668 505.936 272.965 505.303C272.273 504.67 271.295 504.354 270.029 504.354C269.232 504.354 268.541 504.453 267.955 504.652C267.369 504.84 266.836 505.104 266.355 505.443L265.986 508.098H263.314V503.738C265.037 502.332 267.293 501.629 270.082 501.629C272.391 501.629 274.201 502.18 275.514 503.281C276.826 504.383 277.482 505.959 277.482 508.01V517.168C277.482 517.414 277.482 517.654 277.482 517.889C277.494 518.123 277.512 518.357 277.535 518.592L279.381 518.785V521H274.406C274.207 520.039 274.084 519.166 274.037 518.381C273.369 519.236 272.531 519.951 271.523 520.525C270.527 521.088 269.461 521.369 268.324 521.369ZM268.834 518.469C269.982 518.469 271.031 518.193 271.98 517.643C272.93 517.092 273.609 516.43 274.02 515.656V512.211H270.504C268.91 512.211 267.715 512.592 266.918 513.354C266.121 514.115 265.723 514.965 265.723 515.902C265.723 517.613 266.76 518.469 268.834 518.469ZM282.035 521V518.785L284.9 518.293V504.705L282.035 504.213V501.98H287.994L288.293 504.406L288.328 504.74C288.867 503.768 289.529 503.006 290.314 502.455C291.111 501.904 292.02 501.629 293.039 501.629C293.402 501.629 293.771 501.664 294.146 501.734C294.533 501.793 294.809 501.852 294.973 501.91L294.516 505.127L292.107 504.986C291.193 504.928 290.426 505.139 289.805 505.619C289.184 506.088 288.703 506.721 288.363 507.518V518.293L291.229 518.785V521H282.035ZM296.555 521V518.785L299.42 518.293V496.303L296.555 495.811V493.578H302.883V511.244L309.615 504.547L309.703 504.441L307.664 504.213V501.98H315.855V504.213L313.412 504.67L308.068 510.049L314.625 518.363L317.367 518.785V521H308.771V518.785L310.705 518.557L310.652 518.486L305.836 512.281L302.883 515.252V518.293L305.748 518.785V521H296.555ZM326.982 521.369C325.225 521.369 323.695 520.971 322.395 520.174C321.094 519.365 320.086 518.246 319.371 516.816C318.668 515.387 318.316 513.734 318.316 511.859V511.086C318.316 509.281 318.686 507.67 319.424 506.252C320.174 504.822 321.164 503.697 322.395 502.877C323.637 502.045 324.99 501.629 326.455 501.629C329.01 501.629 330.943 502.402 332.256 503.949C333.58 505.496 334.242 507.559 334.242 510.137V512.299H321.902L321.85 512.387C321.885 514.215 322.348 515.721 323.238 516.904C324.129 518.076 325.377 518.662 326.982 518.662C328.154 518.662 329.18 518.498 330.059 518.17C330.949 517.83 331.717 517.367 332.361 516.781L333.715 519.031C333.035 519.688 332.133 520.244 331.008 520.701C329.895 521.146 328.553 521.369 326.982 521.369ZM322.008 509.592H330.779V509.135C330.779 507.775 330.416 506.639 329.689 505.725C328.963 504.811 327.885 504.354 326.455 504.354C325.295 504.354 324.305 504.846 323.484 505.83C322.664 506.803 322.16 508.027 321.973 509.504L322.008 509.592ZM343.664 521.299C342.258 521.299 341.139 520.889 340.307 520.068C339.486 519.236 339.076 517.912 339.076 516.096V504.547H336.07V501.98H339.076V497.393H342.539V501.98H346.67V504.547H342.539V516.096C342.539 517.01 342.721 517.684 343.084 518.117C343.447 518.551 343.934 518.768 344.543 518.768C344.953 518.768 345.41 518.732 345.914 518.662C346.418 518.58 346.811 518.51 347.092 518.451L347.566 520.719C347.062 520.871 346.441 521.006 345.703 521.123C344.977 521.24 344.297 521.299 343.664 521.299ZM349.658 521V518.785L352.523 518.293V504.705L349.658 504.213V501.98H355.986V518.293L358.852 518.785V521H349.658ZM352.348 497.287V493.578H355.986V497.287H352.348ZM361.242 521V518.785L364.107 518.293V504.705L361.242 504.213V501.98H367.201L367.447 504.811C368.08 503.803 368.871 503.023 369.82 502.473C370.781 501.91 371.871 501.629 373.09 501.629C375.141 501.629 376.729 502.232 377.854 503.439C378.979 504.635 379.541 506.486 379.541 508.994V518.293L382.406 518.785V521H373.213V518.785L376.078 518.293V509.064C376.078 507.389 375.744 506.199 375.076 505.496C374.42 504.793 373.412 504.441 372.053 504.441C371.057 504.441 370.172 504.682 369.398 505.162C368.637 505.643 368.027 506.299 367.57 507.131V518.293L370.436 518.785V521H361.242ZM393.041 528.682C392.127 528.682 391.137 528.553 390.07 528.295C389.004 528.049 388.066 527.709 387.258 527.275L388.154 524.586C388.799 524.926 389.561 525.207 390.439 525.43C391.318 525.652 392.174 525.764 393.006 525.764C394.553 525.764 395.684 525.33 396.398 524.463C397.125 523.596 397.488 522.359 397.488 520.754V518.943C396.223 520.561 394.482 521.369 392.268 521.369C390.721 521.369 389.385 520.988 388.26 520.227C387.135 519.453 386.268 518.381 385.658 517.01C385.061 515.627 384.762 514.027 384.762 512.211V511.842C384.762 509.803 385.061 508.016 385.658 506.48C386.268 504.945 387.135 503.756 388.26 502.912C389.385 502.057 390.732 501.629 392.303 501.629C394.658 501.629 396.463 502.543 397.717 504.371L398.033 501.98H403.307V504.195L400.951 504.705V520.754C400.951 523.215 400.266 525.148 398.895 526.555C397.523 527.973 395.572 528.682 393.041 528.682ZM393.129 518.557C394.172 518.557 395.045 518.322 395.748 517.854C396.451 517.373 397.031 516.699 397.488 515.832V507.078C397.043 506.27 396.463 505.631 395.748 505.162C395.033 504.682 394.172 504.441 393.164 504.441C391.512 504.441 390.275 505.133 389.455 506.516C388.635 507.898 388.225 509.674 388.225 511.842V512.211C388.225 514.121 388.629 515.656 389.438 516.816C390.246 517.977 391.477 518.557 393.129 518.557ZM413.484 528.312V526.08L416.174 525.588V504.705L413.309 504.213V501.98H419.145L419.461 504.301C420.762 502.52 422.584 501.629 424.928 501.629C426.498 501.629 427.84 502.057 428.953 502.912C430.066 503.756 430.916 504.945 431.502 506.48C432.088 508.004 432.381 509.791 432.381 511.842V512.211C432.381 514.039 432.082 515.639 431.484 517.01C430.898 518.381 430.055 519.453 428.953 520.227C427.852 520.988 426.527 521.369 424.98 521.369C422.672 521.369 420.891 520.59 419.637 519.031V525.588L422.66 526.08V528.312H413.484ZM423.908 518.662C425.549 518.662 426.791 518.064 427.635 516.869C428.479 515.674 428.9 514.121 428.9 512.211V511.842C428.9 509.674 428.479 507.898 427.635 506.516C426.791 505.133 425.537 504.441 423.873 504.441C422.889 504.441 422.045 504.664 421.342 505.109C420.639 505.555 420.07 506.164 419.637 506.938V516.201C420.07 516.986 420.633 517.596 421.324 518.029C422.027 518.451 422.889 518.662 423.908 518.662ZM441.223 521.369C439.242 521.369 437.736 520.889 436.705 519.928C435.674 518.955 435.158 517.59 435.158 515.832C435.158 514.027 435.896 512.58 437.373 511.49C438.85 510.389 440.9 509.838 443.525 509.838H446.918V507.975C446.918 506.826 446.566 505.936 445.863 505.303C445.172 504.67 444.193 504.354 442.928 504.354C442.131 504.354 441.439 504.453 440.854 504.652C440.268 504.84 439.734 505.104 439.254 505.443L438.885 508.098H436.213V503.738C437.936 502.332 440.191 501.629 442.98 501.629C445.289 501.629 447.1 502.18 448.412 503.281C449.725 504.383 450.381 505.959 450.381 508.01V517.168C450.381 517.414 450.381 517.654 450.381 517.889C450.393 518.123 450.41 518.357 450.434 518.592L452.279 518.785V521H447.305C447.105 520.039 446.982 519.166 446.936 518.381C446.268 519.236 445.43 519.951 444.422 520.525C443.426 521.088 442.359 521.369 441.223 521.369ZM441.732 518.469C442.881 518.469 443.93 518.193 444.879 517.643C445.828 517.092 446.508 516.43 446.918 515.656V512.211H443.402C441.809 512.211 440.613 512.592 439.816 513.354C439.02 514.115 438.621 514.965 438.621 515.902C438.621 517.613 439.658 518.469 441.732 518.469ZM454.934 521V518.785L457.799 518.293V504.705L454.934 504.213V501.98H460.893L461.191 504.406L461.227 504.74C461.766 503.768 462.428 503.006 463.213 502.455C464.01 501.904 464.918 501.629 465.938 501.629C466.301 501.629 466.67 501.664 467.045 501.734C467.432 501.793 467.707 501.852 467.871 501.91L467.414 505.127L465.006 504.986C464.092 504.928 463.324 505.139 462.703 505.619C462.082 506.088 461.602 506.721 461.262 507.518V518.293L464.127 518.785V521H454.934ZM476.133 521.369C474.152 521.369 472.646 520.889 471.615 519.928C470.584 518.955 470.068 517.59 470.068 515.832C470.068 514.027 470.807 512.58 472.283 511.49C473.76 510.389 475.811 509.838 478.436 509.838H481.828V507.975C481.828 506.826 481.477 505.936 480.773 505.303C480.082 504.67 479.104 504.354 477.838 504.354C477.041 504.354 476.35 504.453 475.764 504.652C475.178 504.84 474.645 505.104 474.164 505.443L473.795 508.098H471.123V503.738C472.846 502.332 475.102 501.629 477.891 501.629C480.199 501.629 482.01 502.18 483.322 503.281C484.635 504.383 485.291 505.959 485.291 508.01V517.168C485.291 517.414 485.291 517.654 485.291 517.889C485.303 518.123 485.32 518.357 485.344 518.592L487.189 518.785V521H482.215C482.016 520.039 481.893 519.166 481.846 518.381C481.178 519.236 480.34 519.951 479.332 520.525C478.336 521.088 477.27 521.369 476.133 521.369ZM476.643 518.469C477.791 518.469 478.84 518.193 479.789 517.643C480.738 517.092 481.418 516.43 481.828 515.656V512.211H478.312C476.719 512.211 475.523 512.592 474.727 513.354C473.93 514.115 473.531 514.965 473.531 515.902C473.531 517.613 474.568 518.469 476.643 518.469ZM28.4355 568.369C26.6074 568.369 25.0254 567.959 23.6895 567.139C22.3652 566.318 21.3457 565.188 20.6309 563.746C19.916 562.305 19.5586 560.646 19.5586 558.771V558.244C19.5586 556.381 19.9219 554.729 20.6484 553.287C21.375 551.834 22.4004 550.697 23.7246 549.877C25.0488 549.045 26.6074 548.629 28.4004 548.629C30.0996 548.629 31.5703 548.898 32.8125 549.438C34.0547 549.965 35.0625 550.58 35.8359 551.283L35.8008 556.732H31.9336L31.248 553.34C30.9668 553.059 30.6094 552.83 30.1758 552.654C29.7422 552.479 29.3027 552.391 28.8574 552.391C27.4512 552.391 26.4023 552.912 25.7109 553.955C25.0312 554.986 24.6914 556.416 24.6914 558.244V558.771C24.6914 560.729 25.0605 562.164 25.7988 563.078C26.5371 563.98 27.4277 564.432 28.4707 564.432C29.373 564.432 30.0938 564.197 30.6328 563.729C31.1836 563.248 31.5645 562.574 31.7754 561.707H36.1523L36.2051 561.812C35.9004 563.84 35.1504 565.439 33.9551 566.611C32.7598 567.783 30.9199 568.369 28.4355 568.369ZM44.8711 568.369C42.9844 568.369 41.4844 567.865 40.3711 566.857C39.2578 565.838 38.7012 564.455 38.7012 562.709C38.7012 560.928 39.4219 559.475 40.8633 558.35C42.3164 557.225 44.4492 556.662 47.2617 556.662H49.7754V555.256C49.7754 554.342 49.5059 553.604 48.9668 553.041C48.4395 552.467 47.6426 552.18 46.5762 552.18C46.0254 552.18 45.5273 552.25 45.082 552.391C44.6484 552.52 44.2559 552.707 43.9043 552.953L43.5 555.467H39.8086L39.7383 550.527C40.7344 549.965 41.8125 549.508 42.9727 549.156C44.1328 548.805 45.4277 548.629 46.8574 548.629C49.3418 548.629 51.3047 549.209 52.7461 550.369C54.1875 551.529 54.9082 553.176 54.9082 555.309V563.148C54.9082 563.406 54.9082 563.658 54.9082 563.904C54.9199 564.15 54.9434 564.396 54.9785 564.643L56.9648 564.924V568H50.6016C50.4727 567.672 50.3438 567.32 50.2148 566.945C50.0859 566.57 49.9922 566.195 49.9336 565.82C49.3242 566.594 48.6035 567.215 47.7715 567.684C46.9512 568.141 45.9844 568.369 44.8711 568.369ZM46.2422 564.572C46.957 564.572 47.6309 564.414 48.2637 564.098C48.9082 563.77 49.4121 563.342 49.7754 562.814V559.809H47.2441C46.1191 559.809 45.2637 560.066 44.6777 560.582C44.1035 561.098 43.8164 561.719 43.8164 562.445C43.8164 563.125 44.0273 563.652 44.4492 564.027C44.8828 564.391 45.4805 564.572 46.2422 564.572ZM58.6699 575.312V572.219L61.1484 571.691V552.602L58.4062 552.074V548.98H65.8594L66.1055 551.195C66.668 550.375 67.3477 549.742 68.1445 549.297C68.9414 548.852 69.8906 548.629 70.9922 548.629C72.5273 548.629 73.8398 549.051 74.9297 549.895C76.0195 550.727 76.8516 551.893 77.4258 553.393C78.0117 554.893 78.3047 556.645 78.3047 558.648V559.018C78.3047 560.893 78.0117 562.533 77.4258 563.939C76.8398 565.334 75.9961 566.424 74.8945 567.209C73.8047 567.982 72.4922 568.369 70.957 568.369C68.9531 568.369 67.3887 567.643 66.2637 566.189V571.691L68.7422 572.219V575.312H58.6699ZM69.4277 564.432C70.7402 564.432 71.6895 563.945 72.2754 562.973C72.873 562 73.1719 560.682 73.1719 559.018V558.648C73.1719 556.855 72.8672 555.402 72.2578 554.289C71.6484 553.176 70.6934 552.619 69.3926 552.619C67.9629 552.619 66.9199 553.229 66.2637 554.447V562.779C66.9082 563.881 67.9629 564.432 69.4277 564.432ZM88.0605 568.369C86.291 568.369 84.9258 567.883 83.9648 566.91C83.0156 565.938 82.541 564.396 82.541 562.287V552.584H79.9219V548.98H82.541V544.322H87.6562V548.98H91.1543V552.584H87.6562V562.27C87.6562 563.008 87.8086 563.535 88.1133 563.852C88.4297 564.168 88.8574 564.326 89.3965 564.326C89.6777 564.326 89.9824 564.309 90.3105 564.273C90.6387 564.227 90.9199 564.18 91.1543 564.133L91.5938 567.842C91.0781 567.994 90.5098 568.117 89.8887 568.211C89.2676 568.316 88.6582 568.369 88.0605 568.369ZM99.8906 568.369C98.0039 568.369 96.5039 567.865 95.3906 566.857C94.2773 565.838 93.7207 564.455 93.7207 562.709C93.7207 560.928 94.4414 559.475 95.8828 558.35C97.3359 557.225 99.4688 556.662 102.281 556.662H104.795V555.256C104.795 554.342 104.525 553.604 103.986 553.041C103.459 552.467 102.662 552.18 101.596 552.18C101.045 552.18 100.547 552.25 100.102 552.391C99.668 552.52 99.2754 552.707 98.9238 552.953L98.5195 555.467H94.8281L94.7578 550.527C95.7539 549.965 96.832 549.508 97.9922 549.156C99.1523 548.805 100.447 548.629 101.877 548.629C104.361 548.629 106.324 549.209 107.766 550.369C109.207 551.529 109.928 553.176 109.928 555.309V563.148C109.928 563.406 109.928 563.658 109.928 563.904C109.939 564.15 109.963 564.396 109.998 564.643L111.984 564.924V568H105.621C105.492 567.672 105.363 567.32 105.234 566.945C105.105 566.57 105.012 566.195 104.953 565.82C104.344 566.594 103.623 567.215 102.791 567.684C101.971 568.141 101.004 568.369 99.8906 568.369ZM101.262 564.572C101.977 564.572 102.65 564.414 103.283 564.098C103.928 563.77 104.432 563.342 104.795 562.814V559.809H102.264C101.139 559.809 100.283 560.066 99.6973 560.582C99.123 561.098 98.8359 561.719 98.8359 562.445C98.8359 563.125 99.0469 563.652 99.4688 564.027C99.9023 564.391 100.5 564.572 101.262 564.572ZM114.199 568V564.924L116.66 564.396V552.602L113.936 552.074V548.98H121.441L121.635 551.336L121.67 551.758C122.607 549.672 124.014 548.629 125.889 548.629C126.193 548.629 126.521 548.652 126.873 548.699C127.236 548.746 127.564 548.816 127.857 548.91L127.312 553.639L124.764 553.498C124.037 553.463 123.445 553.586 122.988 553.867C122.543 554.148 122.145 554.553 121.793 555.08V564.396L124.254 564.924V568H114.199ZM147.211 568.369C145.453 568.369 143.924 567.971 142.623 567.174C141.322 566.365 140.314 565.246 139.6 563.816C138.896 562.387 138.545 560.734 138.545 558.859V558.086C138.545 556.281 138.914 554.67 139.652 553.252C140.402 551.822 141.393 550.697 142.623 549.877C143.865 549.045 145.219 548.629 146.684 548.629C149.238 548.629 151.172 549.402 152.484 550.949C153.809 552.496 154.471 554.559 154.471 557.137V559.299H142.131L142.078 559.387C142.113 561.215 142.576 562.721 143.467 563.904C144.357 565.076 145.605 565.662 147.211 565.662C148.383 565.662 149.408 565.498 150.287 565.17C151.178 564.83 151.945 564.367 152.59 563.781L153.943 566.031C153.264 566.688 152.361 567.244 151.236 567.701C150.123 568.146 148.781 568.369 147.211 568.369ZM142.236 556.592H151.008V556.135C151.008 554.775 150.645 553.639 149.918 552.725C149.191 551.811 148.113 551.354 146.684 551.354C145.523 551.354 144.533 551.846 143.713 552.83C142.893 553.803 142.389 555.027 142.201 556.504L142.236 556.592ZM165.756 568V564.924L168.234 564.396V552.602L165.492 552.074V548.98H172.998L173.209 551.494C173.818 550.58 174.58 549.877 175.494 549.385C176.42 548.881 177.486 548.629 178.693 548.629C179.912 548.629 180.955 548.898 181.822 549.438C182.689 549.977 183.346 550.791 183.791 551.881C184.377 550.861 185.139 550.064 186.076 549.49C187.014 548.916 188.115 548.629 189.381 548.629C191.256 548.629 192.732 549.268 193.811 550.545C194.9 551.822 195.445 553.768 195.445 556.381V564.396L197.924 564.924V568H188.098V564.924L190.312 564.396V556.363C190.312 554.969 190.078 553.996 189.609 553.445C189.152 552.895 188.484 552.619 187.605 552.619C186.809 552.619 186.135 552.848 185.584 553.305C185.033 553.75 184.635 554.342 184.389 555.08V564.396L186.463 564.924V568H177.199V564.924L179.273 564.396V556.363C179.273 554.992 179.039 554.025 178.57 553.463C178.113 552.9 177.434 552.619 176.531 552.619C175.113 552.619 174.053 553.188 173.35 554.324V564.396L175.564 564.924V568H165.756ZM206.027 568.369C204.141 568.369 202.641 567.865 201.527 566.857C200.414 565.838 199.857 564.455 199.857 562.709C199.857 560.928 200.578 559.475 202.02 558.35C203.473 557.225 205.605 556.662 208.418 556.662H210.932V555.256C210.932 554.342 210.662 553.604 210.123 553.041C209.596 552.467 208.799 552.18 207.732 552.18C207.182 552.18 206.684 552.25 206.238 552.391C205.805 552.52 205.412 552.707 205.061 552.953L204.656 555.467H200.965L200.895 550.527C201.891 549.965 202.969 549.508 204.129 549.156C205.289 548.805 206.584 548.629 208.014 548.629C210.498 548.629 212.461 549.209 213.902 550.369C215.344 551.529 216.064 553.176 216.064 555.309V563.148C216.064 563.406 216.064 563.658 216.064 563.904C216.076 564.15 216.1 564.396 216.135 564.643L218.121 564.924V568H211.758C211.629 567.672 211.5 567.32 211.371 566.945C211.242 566.57 211.148 566.195 211.09 565.82C210.48 566.594 209.76 567.215 208.928 567.684C208.107 568.141 207.141 568.369 206.027 568.369ZM207.398 564.572C208.113 564.572 208.787 564.414 209.42 564.098C210.064 563.77 210.568 563.342 210.932 562.814V559.809H208.4C207.275 559.809 206.42 560.066 205.834 560.582C205.26 561.098 204.973 561.719 204.973 562.445C204.973 563.125 205.184 563.652 205.605 564.027C206.039 564.391 206.637 564.572 207.398 564.572ZM219.756 568V564.924L222.217 564.396V552.602L219.492 552.074V548.98H226.998L227.227 551.705C227.859 550.732 228.639 549.977 229.564 549.438C230.502 548.898 231.568 548.629 232.764 548.629C234.639 548.629 236.109 549.232 237.176 550.439C238.254 551.646 238.793 553.539 238.793 556.117V564.396L241.254 564.924V568H231.445V564.924L233.643 564.396V556.135C233.643 554.857 233.385 553.955 232.869 553.428C232.365 552.889 231.621 552.619 230.637 552.619C229.207 552.619 228.111 553.217 227.35 554.412V564.396L229.424 564.924V568H219.756ZM249.779 568.369C248.01 568.369 246.645 567.883 245.684 566.91C244.734 565.938 244.26 564.396 244.26 562.287V552.584H241.641V548.98H244.26V544.322H249.375V548.98H252.873V552.584H249.375V562.27C249.375 563.008 249.527 563.535 249.832 563.852C250.148 564.168 250.576 564.326 251.115 564.326C251.396 564.326 251.701 564.309 252.029 564.273C252.357 564.227 252.639 564.18 252.873 564.133L253.312 567.842C252.797 567.994 252.229 568.117 251.607 568.211C250.986 568.316 250.377 568.369 249.779 568.369ZM263.895 568.369C262.066 568.369 260.473 567.971 259.113 567.174C257.766 566.365 256.717 565.258 255.967 563.852C255.229 562.445 254.859 560.84 254.859 559.035V558.332C254.859 556.445 255.211 554.775 255.914 553.322C256.617 551.857 257.607 550.709 258.885 549.877C260.174 549.033 261.691 548.617 263.438 548.629C266.004 548.629 267.967 549.385 269.326 550.896C270.686 552.396 271.365 554.506 271.365 557.225V560.02H260.186L260.15 560.125C260.244 561.379 260.66 562.41 261.398 563.219C262.137 564.027 263.186 564.432 264.545 564.432C265.482 564.432 266.355 564.314 267.164 564.08C267.984 563.834 268.781 563.477 269.555 563.008L270.943 566.172C270.158 566.805 269.168 567.332 267.973 567.754C266.789 568.164 265.43 568.369 263.895 568.369ZM260.221 556.627H266.566V556.17C266.566 555.021 266.326 554.113 265.846 553.445C265.377 552.766 264.604 552.426 263.525 552.426C262.494 552.426 261.709 552.818 261.17 553.604C260.631 554.377 260.297 555.355 260.168 556.539L260.221 556.627ZM274.125 568V564.924L276.586 564.396V552.602L273.861 552.074V548.98H281.367L281.561 551.336L281.596 551.758C282.533 549.672 283.939 548.629 285.814 548.629C286.119 548.629 286.447 548.652 286.799 548.699C287.162 548.746 287.49 548.816 287.783 548.91L287.238 553.639L284.689 553.498C283.963 553.463 283.371 553.586 282.914 553.867C282.469 554.148 282.07 554.553 281.719 555.08V564.396L284.18 564.924V568H274.125ZM298.436 568V565.785L301.301 565.293V551.705L298.436 551.213V548.98H304.395L304.693 551.406L304.729 551.74C305.268 550.768 305.93 550.006 306.715 549.455C307.512 548.904 308.42 548.629 309.439 548.629C309.803 548.629 310.172 548.664 310.547 548.734C310.934 548.793 311.209 548.852 311.373 548.91L310.916 552.127L308.508 551.986C307.594 551.928 306.826 552.139 306.205 552.619C305.584 553.088 305.104 553.721 304.764 554.518V565.293L307.629 565.785V568H298.436ZM321.797 568.369C320.039 568.369 318.51 567.971 317.209 567.174C315.908 566.365 314.9 565.246 314.186 563.816C313.482 562.387 313.131 560.734 313.131 558.859V558.086C313.131 556.281 313.5 554.67 314.238 553.252C314.988 551.822 315.979 550.697 317.209 549.877C318.451 549.045 319.805 548.629 321.27 548.629C323.824 548.629 325.758 549.402 327.07 550.949C328.395 552.496 329.057 554.559 329.057 557.137V559.299H316.717L316.664 559.387C316.699 561.215 317.162 562.721 318.053 563.904C318.943 565.076 320.191 565.662 321.797 565.662C322.969 565.662 323.994 565.498 324.873 565.17C325.764 564.83 326.531 564.367 327.176 563.781L328.529 566.031C327.85 566.688 326.947 567.244 325.822 567.701C324.709 568.146 323.367 568.369 321.797 568.369ZM316.822 556.592H325.594V556.135C325.594 554.775 325.23 553.639 324.504 552.725C323.777 551.811 322.699 551.354 321.27 551.354C320.109 551.354 319.119 551.846 318.299 552.83C317.479 553.803 316.975 555.027 316.787 556.504L316.822 556.592ZM331.588 568V565.785L334.453 565.293V543.303L331.588 542.811V540.578H337.916V565.293L340.781 565.785V568H331.588ZM349.412 568.369C347.432 568.369 345.926 567.889 344.895 566.928C343.863 565.955 343.348 564.59 343.348 562.832C343.348 561.027 344.086 559.58 345.562 558.49C347.039 557.389 349.09 556.838 351.715 556.838H355.107V554.975C355.107 553.826 354.756 552.936 354.053 552.303C353.361 551.67 352.383 551.354 351.117 551.354C350.32 551.354 349.629 551.453 349.043 551.652C348.457 551.84 347.924 552.104 347.443 552.443L347.074 555.098H344.402V550.738C346.125 549.332 348.381 548.629 351.17 548.629C353.479 548.629 355.289 549.18 356.602 550.281C357.914 551.383 358.57 552.959 358.57 555.01V564.168C358.57 564.414 358.57 564.654 358.57 564.889C358.582 565.123 358.6 565.357 358.623 565.592L360.469 565.785V568H355.494C355.295 567.039 355.172 566.166 355.125 565.381C354.457 566.236 353.619 566.951 352.611 567.525C351.615 568.088 350.549 568.369 349.412 568.369ZM349.922 565.469C351.07 565.469 352.119 565.193 353.068 564.643C354.018 564.092 354.697 563.43 355.107 562.656V559.211H351.592C349.998 559.211 348.803 559.592 348.006 560.354C347.209 561.115 346.811 561.965 346.811 562.902C346.811 564.613 347.848 565.469 349.922 565.469ZM371.754 568.369C370.031 568.369 368.531 567.971 367.254 567.174C365.977 566.365 364.986 565.246 364.283 563.816C363.58 562.387 363.229 560.734 363.229 558.859V558.121C363.229 556.316 363.568 554.699 364.248 553.27C364.928 551.84 365.906 550.709 367.184 549.877C368.461 549.045 369.984 548.629 371.754 548.629C373.289 548.629 374.631 548.881 375.779 549.385C376.939 549.889 377.912 550.58 378.697 551.459L378.785 556.029H376.078L375.48 552.707C375.082 552.297 374.584 551.969 373.986 551.723C373.389 551.477 372.686 551.354 371.877 551.354C370.846 551.354 369.938 551.658 369.152 552.268C368.379 552.877 367.775 553.691 367.342 554.711C366.908 555.73 366.691 556.867 366.691 558.121V558.859C366.691 560.945 367.143 562.604 368.045 563.834C368.947 565.053 370.178 565.662 371.736 565.662C372.908 565.662 373.881 565.34 374.654 564.695C375.428 564.051 375.902 563.166 376.078 562.041H379.189L379.225 562.146C379.166 563.236 378.844 564.256 378.258 565.205C377.672 566.154 376.834 566.922 375.744 567.508C374.666 568.082 373.336 568.369 371.754 568.369ZM381.809 568V565.785L384.674 565.293V551.705L381.809 551.213V548.98H388.137V565.293L391.002 565.785V568H381.809ZM384.498 544.287V540.578H388.137V544.287H384.498ZM401.988 568.369C400.23 568.369 398.713 567.959 397.436 567.139C396.17 566.307 395.191 565.164 394.5 563.711C393.809 562.246 393.463 560.576 393.463 558.701V558.314C393.463 556.439 393.809 554.775 394.5 553.322C395.191 551.857 396.17 550.709 397.436 549.877C398.713 549.045 400.219 548.629 401.953 548.629C403.711 548.629 405.223 549.045 406.488 549.877C407.766 550.709 408.75 551.852 409.441 553.305C410.133 554.758 410.479 556.428 410.479 558.314V558.701C410.479 560.588 410.133 562.264 409.441 563.729C408.75 565.182 407.771 566.318 406.506 567.139C405.24 567.959 403.734 568.369 401.988 568.369ZM401.988 565.662C403.629 565.662 404.877 565.006 405.732 563.693C406.588 562.381 407.016 560.717 407.016 558.701V558.314C407.016 556.979 406.822 555.789 406.436 554.746C406.061 553.691 405.498 552.865 404.748 552.268C403.998 551.658 403.066 551.354 401.953 551.354C400.852 551.354 399.926 551.658 399.176 552.268C398.426 552.865 397.863 553.691 397.488 554.746C397.113 555.789 396.926 556.979 396.926 558.314V558.701C396.926 560.717 397.348 562.381 398.191 563.693C399.047 565.006 400.312 565.662 401.988 565.662ZM413.15 568V565.785L416.016 565.293V551.705L413.15 551.213V548.98H419.109L419.355 551.811C419.988 550.803 420.779 550.023 421.729 549.473C422.689 548.91 423.779 548.629 424.998 548.629C427.049 548.629 428.637 549.232 429.762 550.439C430.887 551.635 431.449 553.486 431.449 555.994V565.293L434.314 565.785V568H425.121V565.785L427.986 565.293V556.064C427.986 554.389 427.652 553.199 426.984 552.496C426.328 551.793 425.32 551.441 423.961 551.441C422.965 551.441 422.08 551.682 421.307 552.162C420.545 552.643 419.936 553.299 419.479 554.131V565.293L422.344 565.785V568H413.15ZM442.928 568.369C440.947 568.369 439.441 567.889 438.41 566.928C437.379 565.955 436.863 564.59 436.863 562.832C436.863 561.027 437.602 559.58 439.078 558.49C440.555 557.389 442.605 556.838 445.23 556.838H448.623V554.975C448.623 553.826 448.271 552.936 447.568 552.303C446.877 551.67 445.898 551.354 444.633 551.354C443.836 551.354 443.145 551.453 442.559 551.652C441.973 551.84 441.439 552.104 440.959 552.443L440.59 555.098H437.918V550.738C439.641 549.332 441.896 548.629 444.686 548.629C446.994 548.629 448.805 549.18 450.117 550.281C451.43 551.383 452.086 552.959 452.086 555.01V564.168C452.086 564.414 452.086 564.654 452.086 564.889C452.098 565.123 452.115 565.357 452.139 565.592L453.984 565.785V568H449.01C448.811 567.039 448.688 566.166 448.641 565.381C447.973 566.236 447.135 566.951 446.127 567.525C445.131 568.088 444.064 568.369 442.928 568.369ZM443.438 565.469C444.586 565.469 445.635 565.193 446.584 564.643C447.533 564.092 448.213 563.43 448.623 562.656V559.211H445.107C443.514 559.211 442.318 559.592 441.521 560.354C440.725 561.115 440.326 561.965 440.326 562.902C440.326 564.613 441.363 565.469 443.438 565.469ZM456.674 568V565.785L459.539 565.293V551.705L456.674 551.213V548.98H462.65L462.879 551.459C463.488 550.557 464.273 549.859 465.234 549.367C466.195 548.875 467.309 548.629 468.574 548.629C469.84 548.629 470.924 548.922 471.826 549.508C472.74 550.094 473.426 550.973 473.883 552.145C474.48 551.066 475.271 550.211 476.256 549.578C477.24 548.945 478.389 548.629 479.701 548.629C481.646 548.629 483.182 549.297 484.307 550.633C485.432 551.957 485.994 553.955 485.994 556.627V565.293L488.859 565.785V568H479.648V565.785L482.514 565.293V556.592C482.514 554.717 482.191 553.393 481.547 552.619C480.902 551.834 479.947 551.441 478.682 551.441C477.475 551.441 476.502 551.869 475.764 552.725C475.037 553.568 474.615 554.635 474.498 555.924V565.293L477.363 565.785V568H468.17V565.785L471.035 565.293V556.592C471.035 554.811 470.701 553.51 470.033 552.689C469.377 551.857 468.422 551.441 467.168 551.441C466.113 551.441 465.246 551.658 464.566 552.092C463.887 552.525 463.365 553.135 463.002 553.92V565.293L465.867 565.785V568H456.674ZM499.828 568.369C498.07 568.369 496.541 567.971 495.24 567.174C493.939 566.365 492.932 565.246 492.217 563.816C491.514 562.387 491.162 560.734 491.162 558.859V558.086C491.162 556.281 491.531 554.67 492.27 553.252C493.02 551.822 494.01 550.697 495.24 549.877C496.482 549.045 497.836 548.629 499.301 548.629C501.855 548.629 503.789 549.402 505.102 550.949C506.426 552.496 507.088 554.559 507.088 557.137V559.299H494.748L494.695 559.387C494.73 561.215 495.193 562.721 496.084 563.904C496.975 565.076 498.223 565.662 499.828 565.662C501 565.662 502.025 565.498 502.904 565.17C503.795 564.83 504.562 564.367 505.207 563.781L506.561 566.031C505.881 566.688 504.979 567.244 503.854 567.701C502.74 568.146 501.398 568.369 499.828 568.369ZM494.854 556.592H503.625V556.135C503.625 554.775 503.262 553.639 502.535 552.725C501.809 551.811 500.73 551.354 499.301 551.354C498.141 551.354 497.15 551.846 496.33 552.83C495.51 553.803 495.006 555.027 494.818 556.504L494.854 556.592ZM509.795 568V565.785L512.66 565.293V551.705L509.795 551.213V548.98H515.754L516 551.811C516.633 550.803 517.424 550.023 518.373 549.473C519.334 548.91 520.424 548.629 521.643 548.629C523.693 548.629 525.281 549.232 526.406 550.439C527.531 551.635 528.094 553.486 528.094 555.994V565.293L530.959 565.785V568H521.766V565.785L524.631 565.293V556.064C524.631 554.389 524.297 553.199 523.629 552.496C522.973 551.793 521.965 551.441 520.605 551.441C519.609 551.441 518.725 551.682 517.951 552.162C517.189 552.643 516.58 553.299 516.123 554.131V565.293L518.988 565.785V568H509.795ZM539.432 568.299C538.025 568.299 536.906 567.889 536.074 567.068C535.254 566.236 534.844 564.912 534.844 563.096V551.547H531.838V548.98H534.844V544.393H538.307V548.98H542.438V551.547H538.307V563.096C538.307 564.01 538.488 564.684 538.852 565.117C539.215 565.551 539.701 565.768 540.311 565.768C540.721 565.768 541.178 565.732 541.682 565.662C542.186 565.58 542.578 565.51 542.859 565.451L543.334 567.719C542.83 567.871 542.209 568.006 541.471 568.123C540.744 568.24 540.064 568.299 539.432 568.299ZM553.793 568.369C552.035 568.369 550.518 567.959 549.24 567.139C547.975 566.307 546.996 565.164 546.305 563.711C545.613 562.246 545.268 560.576 545.268 558.701V558.314C545.268 556.439 545.613 554.775 546.305 553.322C546.996 551.857 547.975 550.709 549.24 549.877C550.518 549.045 552.023 548.629 553.758 548.629C555.516 548.629 557.027 549.045 558.293 549.877C559.57 550.709 560.555 551.852 561.246 553.305C561.938 554.758 562.283 556.428 562.283 558.314V558.701C562.283 560.588 561.938 562.264 561.246 563.729C560.555 565.182 559.576 566.318 558.311 567.139C557.045 567.959 555.539 568.369 553.793 568.369ZM553.793 565.662C555.434 565.662 556.682 565.006 557.537 563.693C558.393 562.381 558.82 560.717 558.82 558.701V558.314C558.82 556.979 558.627 555.789 558.24 554.746C557.865 553.691 557.303 552.865 556.553 552.268C555.803 551.658 554.871 551.354 553.758 551.354C552.656 551.354 551.73 551.658 550.98 552.268C550.23 552.865 549.668 553.691 549.293 554.746C548.918 555.789 548.73 556.979 548.73 558.314V558.701C548.73 560.717 549.152 562.381 549.996 563.693C550.852 565.006 552.117 565.662 553.793 565.662ZM572.654 568.369C571.377 568.369 570.182 568.24 569.068 567.982C567.955 567.725 566.771 567.326 565.518 566.787L565.482 562.27H568.102L568.752 564.994C569.994 565.51 571.295 565.768 572.654 565.768C574.061 565.768 575.068 565.498 575.678 564.959C576.287 564.42 576.592 563.752 576.592 562.955C576.592 562.205 576.281 561.572 575.66 561.057C575.051 560.529 573.938 560.084 572.32 559.721C570.023 559.193 568.33 558.49 567.24 557.611C566.162 556.721 565.623 555.537 565.623 554.061C565.623 553.029 565.922 552.109 566.52 551.301C567.117 550.48 567.949 549.83 569.016 549.35C570.082 548.869 571.324 548.629 572.742 548.629C574.184 548.629 575.414 548.793 576.434 549.121C577.465 549.449 578.361 549.889 579.123 550.439L579.299 554.781H576.697L576.135 552.25C575.725 551.945 575.238 551.711 574.676 551.547C574.113 551.383 573.469 551.301 572.742 551.301C571.664 551.301 570.785 551.553 570.105 552.057C569.438 552.561 569.104 553.193 569.104 553.955C569.104 554.4 569.197 554.787 569.385 555.115C569.584 555.443 569.959 555.742 570.51 556.012C571.061 556.27 571.869 556.527 572.936 556.785C575.584 557.406 577.43 558.197 578.473 559.158C579.527 560.119 580.055 561.303 580.055 562.709C580.055 564.314 579.457 565.662 578.262 566.752C577.078 567.83 575.209 568.369 572.654 568.369Z" fill="#120082"/>
<path d="M100.352 415.812L113.5 452.938L126.578 415.812H140.43V467H129.848V453.008L130.902 428.855L117.086 467H109.844L96.0625 428.891L97.1172 453.008V467H86.5703V415.812H100.352ZM179.172 456.453H160.68L157.164 467H145.949L165.004 415.812H174.777L193.938 467H182.723L179.172 456.453ZM163.527 447.91H176.324L169.891 428.75L163.527 447.91ZM209.934 467H199.387V415.812H209.934V467ZM230.289 458.527H252.684V467H219.742V415.812H230.289V458.527ZM303.238 453.57C303.238 451.578 302.535 450.055 301.129 449C299.723 447.922 297.191 446.797 293.535 445.625C289.879 444.43 286.984 443.258 284.852 442.109C279.039 438.969 276.133 434.738 276.133 429.418C276.133 426.652 276.906 424.191 278.453 422.035C280.023 419.855 282.262 418.156 285.168 416.938C288.098 415.719 291.379 415.109 295.012 415.109C298.668 415.109 301.926 415.777 304.785 417.113C307.645 418.426 309.859 420.289 311.43 422.703C313.023 425.117 313.82 427.859 313.82 430.93H303.273C303.273 428.586 302.535 426.77 301.059 425.48C299.582 424.168 297.508 423.512 294.836 423.512C292.258 423.512 290.254 424.062 288.824 425.164C287.395 426.242 286.68 427.672 286.68 429.453C286.68 431.117 287.512 432.512 289.176 433.637C290.863 434.762 293.336 435.816 296.594 436.801C302.594 438.605 306.965 440.844 309.707 443.516C312.449 446.188 313.82 449.516 313.82 453.5C313.82 457.93 312.145 461.41 308.793 463.941C305.441 466.449 300.93 467.703 295.258 467.703C291.32 467.703 287.734 466.988 284.5 465.559C281.266 464.105 278.793 462.125 277.082 459.617C275.395 457.109 274.551 454.203 274.551 450.898H285.133C285.133 456.547 288.508 459.371 295.258 459.371C297.766 459.371 299.723 458.867 301.129 457.859C302.535 456.828 303.238 455.398 303.238 453.57ZM331.539 448.965V467H320.992V415.812H340.961C344.805 415.812 348.18 416.516 351.086 417.922C354.016 419.328 356.266 421.332 357.836 423.934C359.406 426.512 360.191 429.453 360.191 432.758C360.191 437.773 358.469 441.734 355.023 444.641C351.602 447.523 346.855 448.965 340.785 448.965H331.539ZM331.539 440.422H340.961C343.75 440.422 345.871 439.766 347.324 438.453C348.801 437.141 349.539 435.266 349.539 432.828C349.539 430.32 348.801 428.293 347.324 426.746C345.848 425.199 343.809 424.402 341.207 424.355H331.539V440.422ZM378.684 467H368.137V415.812H378.684V467ZM388.492 467V415.812H404.242C408.742 415.812 412.762 416.832 416.301 418.871C419.863 420.887 422.641 423.77 424.633 427.52C426.625 431.246 427.621 435.488 427.621 440.246V442.602C427.621 447.359 426.637 451.59 424.668 455.293C422.723 458.996 419.969 461.867 416.406 463.906C412.844 465.945 408.824 466.977 404.348 467H388.492ZM399.039 424.355V458.527H404.137C408.262 458.527 411.414 457.18 413.594 454.484C415.773 451.789 416.887 447.934 416.934 442.918V440.211C416.934 435.008 415.855 431.07 413.699 428.398C411.543 425.703 408.391 424.355 404.242 424.355H399.039ZM466.117 444.816H445.867V458.527H469.633V467H435.32V415.812H469.562V424.355H445.867V436.555H466.117V444.816ZM494.77 448.262H486.367V467H475.82V415.812H494.84C500.887 415.812 505.551 417.16 508.832 419.855C512.113 422.551 513.754 426.359 513.754 431.281C513.754 434.773 512.992 437.691 511.469 440.035C509.969 442.355 507.684 444.207 504.613 445.59L515.688 466.508V467H504.367L494.77 448.262ZM486.367 439.719H494.875C497.523 439.719 499.574 439.051 501.027 437.715C502.48 436.355 503.207 434.492 503.207 432.125C503.207 429.711 502.516 427.812 501.133 426.43C499.773 425.047 497.676 424.355 494.84 424.355H486.367V439.719Z" fill="#120082"/>
<path d="M166.807 14.0563C166.725 14.6725 189.196 92.6005 189.648 93.381C189.812 93.6274 192.523 97.8176 195.645 102.665C209.941 124.684 214.994 133.187 220.005 143.539L223.374 150.523L240.545 166.544C259.401 184.126 271.519 195.792 271.519 196.367C271.519 197.107 267.699 196.696 261.044 195.299C241.531 191.191 239.806 190.534 197.576 170.159L178.885 161.121L163.726 149.496C155.387 143.128 145.035 135.2 140.722 131.873C136.408 128.545 132.218 125.423 131.438 124.848L130 123.862L131.602 125.67C132.465 126.697 142.365 136.925 153.58 148.387C176.584 171.966 174.325 170.118 189.36 178.046C203.368 185.44 212.365 190.37 225.51 197.805L238.039 204.871L250.158 206.761C264.864 209.061 271.519 210.293 271.519 210.663C271.519 211.115 261.824 215.675 245.228 223.028C236.971 226.684 226.044 231.737 220.95 234.202L211.666 238.72L206.162 245.54C199.712 253.591 193.016 261.437 186.402 268.75C179.337 276.514 178.556 277.787 164.589 302.928L158.181 314.471L155.716 332.094C152.142 357.605 150.663 368.861 150.827 369.354C150.951 369.723 153.251 361.261 159.372 337.64C165.205 315.211 166.191 312.951 176.707 298.697C178.638 296.068 181.596 291.754 183.198 289.166C187.594 282.142 189.483 280.047 205.176 264.149L219.553 249.607L224.278 247.388C232.083 243.65 244.407 238.228 245.064 238.228C245.639 238.228 245.639 238.597 244.941 241.309C244.489 243.075 242.476 245.334 237.752 249.36C232.822 253.591 228.18 258.398 221.032 266.737C215.897 272.734 215.035 274.172 213.35 279.718C210.721 288.427 206.531 300.422 204.518 305.105C202.218 310.486 201.643 312.992 200.451 323.057C199.26 333.08 197.781 343.309 196.549 349.759C194.824 359.166 194.782 358.18 197.576 375.269C200.78 395.193 203.163 408.42 203.902 410.762L204.477 412.61L204.518 409.324C204.559 407.516 203.984 395.48 203.286 382.622L202.012 359.166L204.929 344.624C210.475 317.265 211.379 313.855 215.528 303.955C217.007 300.463 219.841 293.397 221.813 288.304L225.428 279.02L229.043 275.569C231.056 273.679 234.506 270.393 236.684 268.257C238.902 266.121 240.792 264.436 240.874 264.56C240.956 264.642 241.326 266.942 241.695 269.653C244.242 287.934 250.035 298.573 264.536 311.678C275.093 321.249 284.582 326.918 293.661 329.096C298.632 330.246 306.56 329.999 310.75 328.52C323.115 324.125 341.683 308.967 350.31 296.273C355.486 288.632 360.662 275.117 360.662 269.202C360.662 266.285 361.401 265.71 363.291 267.024C365.92 268.873 374.177 276.842 375.984 279.266C377.217 280.909 378.367 283.251 379.558 286.578C380.544 289.248 383.256 296.068 385.556 301.737C388.226 308.227 390.321 314.06 391.225 317.552C392.704 323.18 397.962 347.951 398.948 353.867C399.728 358.755 399.523 371.243 398.291 390.427C396.73 415.691 396.73 415.609 397.264 414.746C397.88 413.678 400.18 401.971 401.906 390.838C402.727 385.621 404.247 376.255 405.274 369.97L407.205 358.591L405.931 352.1C404.206 343.597 402.851 334.189 401.536 322.646C400.386 312.171 400.016 310.61 397.633 305.352C395.292 300.34 392.745 293.192 390.034 284.031C387.364 275.076 386.829 273.967 383.749 270.105C379.928 265.34 378.162 263.409 369.124 254.249C363.291 248.333 360.128 244.8 359.512 243.527C358.567 241.596 358.32 239.049 359.019 239.049C359.676 239.049 370.562 244.02 377.176 247.265L383.05 250.223L395.621 262.793C410.984 278.239 413.244 280.827 419.118 289.741C421.706 293.603 425.855 299.641 428.361 303.133C435.961 313.691 436.864 315.95 443.848 342.57C448.367 359.782 450.544 367.669 450.914 368.039C451.201 368.327 451.119 367.751 447.258 339.283L443.971 314.841L436.33 301.079C423.883 278.568 422.856 277.007 415.873 269.202C410.163 262.834 401.824 252.975 396.648 246.443C394.224 243.404 391.471 240.282 390.527 239.501C387.61 237.201 368.467 227.999 349.981 220.029C342.176 216.661 335.48 213.621 334.165 212.881C333.631 212.553 333.467 212.265 333.755 212.019C334.371 211.403 340.574 208.815 358.526 201.667C374.547 195.299 374.67 195.258 378.614 192.218C390.65 182.893 413.203 165.311 415.791 163.175C419.241 160.382 418.214 162.682 424.541 142.923C430.908 122.917 441.219 88.4103 441.178 87.3012C441.137 86.685 441.589 85.6991 426.266 121.274L412.545 153.234L392.129 168.844L371.753 184.454L355.404 190.329C332.029 198.791 328.62 199.818 330.92 197.6C331.619 196.901 353.966 180.264 367.769 170.159L372.904 166.379L382.105 152.494C392.868 136.268 401.084 124.273 412.751 107.882L421.131 96.0511L434.235 56.9844C441.465 35.4998 447.299 17.7534 447.258 17.5481C447.134 17.1783 439.863 33.6512 423.801 70.705L415.503 89.9303L405.644 102.953C367.604 153.275 367.727 153.152 356.143 162.436C344.476 171.761 331.29 181.538 330.304 181.538C330.099 181.538 329.195 180.182 328.332 178.58C327.47 176.937 326.196 174.801 325.498 173.897C323.156 170.857 323.156 170.775 322.622 160.176C322.252 152.371 322.006 149.701 321.431 148.345C320.486 146.004 317.282 143.252 313.215 141.28C310.257 139.883 307.258 138.897 307.258 139.308C307.258 139.431 308.655 140.581 310.38 141.937C313.708 144.566 315.639 147.031 316.337 149.66C316.624 150.646 316.707 153.398 316.624 156.274C316.501 160.135 316.255 161.614 315.556 163.134C314.776 164.9 314.571 165.106 313.338 165.106C311.613 165.106 309.148 163.874 308.039 162.477C306.601 160.669 304.095 159.601 301.302 159.601C298.344 159.642 297.03 160.259 293.62 163.298C291.443 165.229 290.909 165.558 289.676 165.435C286.924 165.188 285.486 161.409 285.486 154.384C285.486 149.29 286.39 147.401 290.95 142.923C294.893 139.061 294.483 138.692 289.142 141.362C284.541 143.662 281.666 146.456 280.803 149.496C279.735 153.357 279.242 158.821 279.53 164.695L279.817 170.241L277.311 174.143C275.956 176.28 274.805 178.292 274.805 178.539C274.805 178.826 274.559 179.073 274.271 179.073C272.587 179.073 244.489 154.384 238.204 147.401C231.467 139.883 229.166 136.638 210.639 108.416L196.508 86.8082L183.034 53.1641C170.546 22.0668 166.889 13.1936 166.807 14.0563Z" fill="#120082"/>
</svg>
